<svg xmlns="http://www.w3.org/2000/svg" width="1200" height="630" viewBox="0 0 1200 630"><rect width="1200" height="630" fill="#e9e7e1"/><line x1="0" y1="28" x2="1200" y2="28" stroke="#c4bdac" stroke-opacity="0.30" stroke-width="1"/><line x1="0" y1="56" x2="1200" y2="56" stroke="#c4bdac" stroke-opacity="0.30" stroke-width="1"/><line x1="0" y1="84" x2="1200" y2="84" stroke="#c4bdac" stroke-opacity="0.30" stroke-width="1"/><line x1="0" y1="112" x2="1200" y2="112" stroke="#c4bdac" stroke-opacity="0.30" stroke-width="1"/><line x1="0" y1="140" x2="1200" y2="140" stroke="#c4bdac" stroke-opacity="0.30" stroke-width="1"/><line x1="0" y1="168" x2="1200" y2="168" stroke="#c4bdac" stroke-opacity="0.30" stroke-width="1"/><line x1="0" y1="196" x2="1200" y2="196" stroke="#c4bdac" stroke-opacity="0.30" stroke-width="1"/><line x1="0" y1="224" x2="1200" y2="224" stroke="#c4bdac" stroke-opacity="0.30" stroke-width="1"/><line x1="0" y1="252" x2="1200" y2="252" stroke="#c4bdac" stroke-opacity="0.30" stroke-width="1"/><line x1="0" y1="280" x2="1200" y2="280" stroke="#c4bdac" stroke-opacity="0.30" stroke-width="1"/><line x1="0" y1="308" x2="1200" y2="308" stroke="#c4bdac" stroke-opacity="0.30" stroke-width="1"/><line x1="0" y1="336" x2="1200" y2="336" stroke="#c4bdac" stroke-opacity="0.30" stroke-width="1"/><line x1="0" y1="364" x2="1200" y2="364" stroke="#c4bdac" stroke-opacity="0.30" stroke-width="1"/><line x1="0" y1="392" x2="1200" y2="392" stroke="#c4bdac" stroke-opacity="0.30" stroke-width="1"/><line x1="0" y1="420" x2="1200" y2="420" stroke="#c4bdac" stroke-opacity="0.30" stroke-width="1"/><line x1="0" y1="448" x2="1200" y2="448" stroke="#c4bdac" stroke-opacity="0.30" stroke-width="1"/><line x1="0" y1="476" x2="1200" y2="476" stroke="#c4bdac" stroke-opacity="0.30" stroke-width="1"/><line x1="0" y1="504" x2="1200" y2="504" stroke="#c4bdac" stroke-opacity="0.30" stroke-width="1"/><line x1="0" y1="532" x2="1200" y2="532" stroke="#c4bdac" stroke-opacity="0.30" stroke-width="1"/><line x1="0" y1="560" x2="1200" y2="560" stroke="#c4bdac" stroke-opacity="0.30" stroke-width="1"/><line x1="0" y1="588" x2="1200" y2="588" stroke="#c4bdac" stroke-opacity="0.30" stroke-width="1"/><line x1="0" y1="616" x2="1200" y2="616" stroke="#c4bdac" stroke-opacity="0.30" stroke-width="1"/><line x1="78" y1="122.85000000000001" x2="1122" y2="122.85000000000001" stroke="#14140f" stroke-width="2"/><g fill="#66614f"><path d="M1130 1187Q1154 1187 1167 1178.5Q1180 1170 1186.5 1148Q1193 1126 1193 1084Q1193 1042 1186.5 1020Q1180 998 1167 990Q1154 982 1130 982L1087 982L737 641Q793 638 839 610.5Q885 583 919 535Q942 502 961 466.5Q980 431 1004 380Q1040 306 1054 282Q1076 245 1100 225Q1124 205 1155 205L1165 205Q1189 205 1202 196.5Q1215 188 1221.5 166Q1228 144 1228 102Q1228 60 1221.5 38Q1215 16 1202 8Q1189 0 1165 0L1026 0Q965 0 922.5 37.5Q880 75 844 142Q821 185 796 242Q778 280 759 318Q740 356 724 381Q698 420 666 442.5Q634 465 600 465Q556 465 521 431L470 381L470 205L585 205Q609 205 622 196.5Q635 188 641.5 166Q648 144 648 102Q648 60 641.5 38Q635 16 622 8Q609 0 585 0L113 0Q89 0 76 8Q63 16 56.5 38Q50 60 50 102Q50 144 56.5 166Q63 188 76 196.5Q89 205 113 205L220 205L220 982L113 982Q89 982 76 990Q63 998 56.5 1020Q50 1042 50 1084Q50 1126 56.5 1148Q63 1170 76 1178.5Q89 1187 113 1187L517 1187Q541 1187 554 1178.5Q567 1170 573.5 1148Q580 1126 580 1084Q580 1042 573.5 1020Q567 998 554 990Q541 982 517 982L470 982L470 662L794 982L741 982Q717 982 704 990Q691 998 684.5 1020Q678 1042 678 1084Q678 1126 684.5 1148Q691 1170 704 1178.5Q717 1187 741 1187L1130 1187Z" transform="translate(78.00,88.20) scale(0.01292,-0.01292)"/><path d="M614 1209Q778 1209 903 1134.5Q1028 1060 1096.5 920.5Q1165 781 1165 594Q1165 407 1096.5 267.5Q1028 128 903 53Q778 -22 614 -22Q450 -22 325 53Q200 128 131.5 267.5Q63 407 63 594Q63 781 131.5 920.5Q200 1060 325 1134.5Q450 1209 614 1209ZM614 982Q475 982 403 882Q331 782 331 594Q331 406 403 305.5Q475 205 614 205Q753 205 825 305.5Q897 406 897 594Q897 782 825 882Q753 982 614 982Z" transform="translate(98.63,88.20) scale(0.01292,-0.01292)"/><path d="M650 1187Q861 1187 974 1094Q1087 1001 1087 824Q1087 593 839 533Q893 512 925 471Q946 444 963.5 414.5Q981 385 1004 340Q1028 292 1041 271Q1061 238 1081 221.5Q1101 205 1126 205L1145 205Q1169 205 1182 196.5Q1195 188 1201.5 166Q1208 144 1208 102Q1208 60 1201.5 38Q1195 16 1182 8Q1169 0 1145 0L1048 0Q969 0 920 32Q871 64 830 139Q810 174 782 235Q762 281 744 314.5Q726 348 704 380Q673 423 635 442Q597 461 544 461L480 461L480 205L577 205Q601 205 614 196.5Q627 188 633.5 166Q640 144 640 102Q640 60 633.5 38Q627 16 614 8Q601 0 577 0L123 0Q99 0 86 8Q73 16 66.5 38Q60 60 60 102Q60 144 66.5 166Q73 188 86 196.5Q99 205 123 205L230 205L230 982L123 982Q99 982 86 990Q73 998 66.5 1020Q60 1042 60 1084Q60 1126 66.5 1148Q73 1170 86 1178.5Q99 1187 123 1187L650 1187ZM480 676L629 676Q731 676 780 712.5Q829 749 829 824Q829 899 780 935.5Q731 972 629 972L480 972Z" transform="translate(119.26,88.20) scale(0.01292,-0.01292)"/><path d="M650 1187Q861 1187 974 1094Q1087 1001 1087 824Q1087 593 839 533Q893 512 925 471Q946 444 963.5 414.5Q981 385 1004 340Q1028 292 1041 271Q1061 238 1081 221.5Q1101 205 1126 205L1145 205Q1169 205 1182 196.5Q1195 188 1201.5 166Q1208 144 1208 102Q1208 60 1201.5 38Q1195 16 1182 8Q1169 0 1145 0L1048 0Q969 0 920 32Q871 64 830 139Q810 174 782 235Q762 281 744 314.5Q726 348 704 380Q673 423 635 442Q597 461 544 461L480 461L480 205L577 205Q601 205 614 196.5Q627 188 633.5 166Q640 144 640 102Q640 60 633.5 38Q627 16 614 8Q601 0 577 0L123 0Q99 0 86 8Q73 16 66.5 38Q60 60 60 102Q60 144 66.5 166Q73 188 86 196.5Q99 205 123 205L230 205L230 982L123 982Q99 982 86 990Q73 998 66.5 1020Q60 1042 60 1084Q60 1126 66.5 1148Q73 1170 86 1178.5Q99 1187 123 1187L650 1187ZM480 676L629 676Q731 676 780 712.5Q829 749 829 824Q829 899 780 935.5Q731 972 629 972L480 972Z" transform="translate(139.89,88.20) scale(0.01292,-0.01292)"/><path d="M654 1187Q863 1187 963.5 1101.5Q1064 1016 1064 864Q1064 782 1023.5 723.5Q983 665 910 630Q1139 568 1139 344Q1139 175 1028 87.5Q917 0 710 0L133 0Q109 0 96 8Q83 16 76.5 38Q70 60 70 102Q70 144 76.5 166Q83 188 96 196.5Q109 205 133 205L240 205L240 982L133 982Q109 982 96 990Q83 998 76.5 1020Q70 1042 70 1084Q70 1126 76.5 1148Q83 1170 96 1178.5Q109 1187 133 1187L654 1187ZM490 714L632 714Q722 714 766 746Q810 778 810 844Q810 911 767.5 941.5Q725 972 632 972L490 972ZM490 215L682 215Q876 215 876 354Q876 428 828.5 463.5Q781 499 682 499L490 499Z" transform="translate(181.14,88.20) scale(0.01292,-0.01292)"/><path d="M1115 1187Q1139 1187 1152 1178.5Q1165 1170 1171.5 1148Q1178 1126 1178 1084Q1178 1042 1171.5 1020Q1165 998 1152 990Q1139 982 1115 982L1068 982L1068 413Q1068 275 1013 177Q958 79 856 28.5Q754 -22 614 -22Q474 -22 372 28.5Q270 79 215 177Q160 275 160 413L160 982L113 982Q89 982 76 990Q63 998 56.5 1020Q50 1042 50 1084Q50 1126 56.5 1148Q63 1170 76 1178.5Q89 1187 113 1187L487 1187Q511 1187 524 1178.5Q537 1170 543.5 1148Q550 1126 550 1084Q550 1042 543.5 1020Q537 998 524 990Q511 982 487 982L410 982L410 433Q410 318 465 261.5Q520 205 614 205Q708 205 763 261.5Q818 318 818 433L818 982L741 982Q717 982 704 990Q691 998 684.5 1020Q678 1042 678 1084Q678 1126 684.5 1148Q691 1170 704 1178.5Q717 1187 741 1187L1115 1187Z" transform="translate(201.77,88.20) scale(0.01292,-0.01292)"/><path d="M975 1187Q999 1187 1012 1178.5Q1025 1170 1031.5 1148Q1038 1126 1038 1084Q1038 1042 1031.5 1020Q1025 998 1012 990Q999 982 975 982L739 982L739 205L995 205Q1019 205 1032 196.5Q1045 188 1051.5 166Q1058 144 1058 102Q1058 60 1051.5 38Q1045 16 1032 8Q1019 0 995 0L233 0Q209 0 196 8Q183 16 176.5 38Q170 60 170 102Q170 144 176.5 166Q183 188 196 196.5Q209 205 233 205L489 205L489 982L253 982Q229 982 216 990Q203 998 196.5 1020Q190 1042 190 1084Q190 1126 196.5 1148Q203 1170 216 1178.5Q229 1187 253 1187L975 1187Z" transform="translate(222.40,88.20) scale(0.01292,-0.01292)"/><path d="M737 1187Q761 1187 774 1178.5Q787 1170 793.5 1148Q800 1126 800 1084Q800 1042 793.5 1020Q787 998 774 990Q761 982 737 982L519 982L519 215L870 215L870 527Q870 561 900.5 575.5Q931 590 1002 590Q1049 590 1074.5 583.5Q1100 577 1110 564Q1120 551 1120 527L1120 65Q1120 31 1105 15.5Q1090 0 1055 0L123 0Q99 0 86 8Q73 16 66.5 38Q60 60 60 102Q60 144 66.5 166Q73 188 86 196.5Q99 205 123 205L269 205L269 982L123 982Q99 982 86 990Q73 998 66.5 1020Q60 1042 60 1084Q60 1126 66.5 1148Q73 1170 86 1178.5Q99 1187 123 1187L737 1187Z" transform="translate(243.03,88.20) scale(0.01292,-0.01292)"/><path d="M594 1187Q769 1187 895 1118Q1021 1049 1088 915.5Q1155 782 1155 594Q1155 406 1088 272.5Q1021 139 895 69.5Q769 0 594 0L123 0Q99 0 86 8Q73 16 66.5 38Q60 60 60 102Q60 144 66.5 166Q73 188 86 196.5Q99 205 123 205L220 205L220 982L123 982Q99 982 86 990Q73 998 66.5 1020Q60 1042 60 1084Q60 1126 66.5 1148Q73 1170 86 1178.5Q99 1187 123 1187L594 1187ZM470 215L574 215Q729 215 808 311.5Q887 408 887 594Q887 780 808 876Q729 972 574 972L470 972Z" transform="translate(263.66,88.20) scale(0.01292,-0.01292)"/><path d="M975 1187Q999 1187 1012 1178.5Q1025 1170 1031.5 1148Q1038 1126 1038 1084Q1038 1042 1031.5 1020Q1025 998 1012 990Q999 982 975 982L739 982L739 205L995 205Q1019 205 1032 196.5Q1045 188 1051.5 166Q1058 144 1058 102Q1058 60 1051.5 38Q1045 16 1032 8Q1019 0 995 0L233 0Q209 0 196 8Q183 16 176.5 38Q170 60 170 102Q170 144 176.5 166Q183 188 196 196.5Q209 205 233 205L489 205L489 982L253 982Q229 982 216 990Q203 998 196.5 1020Q190 1042 190 1084Q190 1126 196.5 1148Q203 1170 216 1178.5Q229 1187 253 1187L975 1187Z" transform="translate(284.28,88.20) scale(0.01292,-0.01292)"/><path d="M1135 1187Q1159 1187 1172 1178.5Q1185 1170 1191.5 1148Q1198 1126 1198 1084Q1198 1042 1191.5 1020Q1185 998 1172 990Q1159 982 1135 982L1078 982L1078 44Q1078 11 1053 -5.5Q1028 -22 968 -22Q922 -22 899.5 -9.5Q877 3 860 31L410 776L406 776L406 205L517 205Q541 205 554 196.5Q567 188 573.5 166Q580 144 580 102Q580 60 573.5 38Q567 16 554 8Q541 0 517 0L113 0Q89 0 76 8Q63 16 56.5 38Q50 60 50 102Q50 144 56.5 166Q63 188 76 196.5Q89 205 113 205L180 205L180 982L113 982Q89 982 76 990Q63 998 56.5 1020Q50 1042 50 1084Q50 1126 56.5 1148Q63 1170 76 1178.5Q89 1187 113 1187L377 1187Q417 1187 433 1160L848 473L852 473L852 982L760 982Q736 982 723 990Q710 998 703.5 1020Q697 1042 697 1084Q697 1126 703.5 1148Q710 1170 723 1178.5Q736 1187 760 1187L1135 1187Z" transform="translate(304.91,88.20) scale(0.01292,-0.01292)"/><path d="M976 1209Q1038 1209 1061 1195Q1084 1181 1084 1146L1084 802Q1084 768 1053.5 753.5Q1023 739 952 739Q905 739 879.5 745.5Q854 752 844 765Q834 778 834 802Q834 888 782 935Q730 982 624 982Q485 982 413 882Q341 782 341 594Q341 408 417.5 306.5Q494 205 634 205Q745 205 844 235L844 402L651 402Q627 402 614 410Q601 418 594.5 440Q588 462 588 504Q588 546 594.5 568Q601 590 614 598.5Q627 607 651 607L1125 607Q1149 607 1162 598.5Q1175 590 1181.5 568Q1188 546 1188 504Q1188 462 1181.5 440Q1175 418 1162 410Q1149 402 1125 402L1094 402L1094 143Q1094 119 1084.5 101Q1075 83 1058 74Q965 26 854 2Q743 -22 624 -22Q460 -22 335 53Q210 128 141.5 267.5Q73 407 73 594Q73 780 140 919.5Q207 1059 325.5 1134Q444 1209 594 1209Q770 1209 854 1091L854 1146Q854 1180 883 1194.5Q912 1209 976 1209Z" transform="translate(325.54,88.20) scale(0.01292,-0.01292)"/><path d="M1006 1209Q1068 1209 1091 1195Q1114 1181 1114 1146L1114 762Q1114 728 1083.5 713.5Q1053 699 982 699Q935 699 909.5 705.5Q884 712 874 725Q864 738 864 762Q864 862 809.5 922Q755 982 654 982Q515 982 443 882Q371 782 371 594Q371 408 447.5 306.5Q524 205 664 205Q751 205 831 228.5Q911 252 1005 300Q1021 308 1035 308Q1082 308 1113 225Q1127 187 1127 157Q1127 106 1081 84Q867 -22 654 -22Q490 -22 365 53Q240 128 171.5 267.5Q103 407 103 594Q103 780 170 919.5Q237 1059 355.5 1134Q474 1209 624 1209Q799 1209 884 1083L884 1146Q884 1180 913 1194.5Q942 1209 1006 1209Z" transform="translate(366.80,88.20) scale(0.01292,-0.01292)"/><path d="M614 1209Q778 1209 903 1134.5Q1028 1060 1096.5 920.5Q1165 781 1165 594Q1165 407 1096.5 267.5Q1028 128 903 53Q778 -22 614 -22Q450 -22 325 53Q200 128 131.5 267.5Q63 407 63 594Q63 781 131.5 920.5Q200 1060 325 1134.5Q450 1209 614 1209ZM614 982Q475 982 403 882Q331 782 331 594Q331 406 403 305.5Q475 205 614 205Q753 205 825 305.5Q897 406 897 594Q897 782 825 882Q753 982 614 982Z" transform="translate(387.43,88.20) scale(0.01292,-0.01292)"/><path d="M1135 1187Q1159 1187 1172 1178.5Q1185 1170 1191.5 1148Q1198 1126 1198 1084Q1198 1042 1191.5 1020Q1185 998 1172 990Q1159 982 1135 982L1081 982L1095 205L1155 205Q1179 205 1192 196.5Q1205 188 1211.5 166Q1218 144 1218 102Q1218 60 1211.5 38Q1205 16 1192 8Q1179 0 1155 0L781 0Q757 0 744 8Q731 16 724.5 38Q718 60 718 102Q718 144 724.5 166Q731 188 744 196.5Q757 205 781 205L873 205L867 797L716 389Q703 354 680 339.5Q657 325 615 325Q572 325 549 339.5Q526 354 512 389L360 794L354 205L447 205Q471 205 484 196.5Q497 188 503.5 166Q510 144 510 102Q510 60 503.5 38Q497 16 484 8Q471 0 447 0L73 0Q49 0 36 8Q23 16 16.5 38Q10 60 10 102Q10 144 16.5 166Q23 188 36 196.5Q49 205 73 205L132 205L147 982L93 982Q69 982 56 990Q43 998 36.5 1020Q30 1042 30 1084Q30 1126 36.5 1148Q43 1170 56 1178.5Q69 1187 93 1187L377 1187Q398 1187 411.5 1180Q425 1173 431 1156L614 665L796 1156Q802 1173 815.5 1180Q829 1187 850 1187L1135 1187Z" transform="translate(408.06,88.20) scale(0.01292,-0.01292)"/><path d="M670 1187Q900 1187 1018.5 1083.5Q1137 980 1137 785Q1137 590 1018.5 486Q900 382 670 382L520 382L520 205L737 205Q761 205 774 196.5Q787 188 793.5 166Q800 144 800 102Q800 60 793.5 38Q787 16 774 8Q761 0 737 0L123 0Q99 0 86 8Q73 16 66.5 38Q60 60 60 102Q60 144 66.5 166Q73 188 86 196.5Q99 205 123 205L270 205L270 982L123 982Q99 982 86 990Q73 998 66.5 1020Q60 1042 60 1084Q60 1126 66.5 1148Q73 1170 86 1178.5Q99 1187 123 1187L670 1187ZM520 597L639 597Q758 597 818.5 643Q879 689 879 785Q879 881 818.5 926.5Q758 972 639 972L520 972Z" transform="translate(428.68,88.20) scale(0.01292,-0.01292)"/><path d="M697 1187Q737 1187 762 1171.5Q787 1156 798 1122L1088 205L1175 205Q1199 205 1212 197Q1225 189 1231.5 167Q1238 145 1238 103Q1238 61 1231.5 39Q1225 17 1212 8.5Q1199 0 1175 0L751 0Q727 0 714 8.5Q701 17 694.5 39Q688 61 688 103Q688 145 694.5 167Q701 189 714 197Q727 205 751 205L837 205L792 350L428 350L383 205L457 205Q481 205 494 197Q507 189 513.5 167Q520 145 520 103Q520 61 513.5 39Q507 17 494 8.5Q481 0 457 0L53 0Q29 0 16 8.5Q3 17 -3.5 39Q-10 61 -10 103Q-10 145 -3.5 167Q3 189 16 197Q29 205 53 205L137 205L390 982L223 982Q199 982 186 990.5Q173 999 166.5 1021Q160 1043 160 1085Q160 1127 166.5 1149Q173 1171 186 1179Q199 1187 223 1187L697 1187ZM609 982L486 555L735 555L615 982Z" transform="translate(449.31,88.20) scale(0.01292,-0.01292)"/><path d="M1135 1187Q1159 1187 1172 1178.5Q1185 1170 1191.5 1148Q1198 1126 1198 1084Q1198 1042 1191.5 1020Q1185 998 1172 990Q1159 982 1135 982L1078 982L1078 44Q1078 11 1053 -5.5Q1028 -22 968 -22Q922 -22 899.5 -9.5Q877 3 860 31L410 776L406 776L406 205L517 205Q541 205 554 196.5Q567 188 573.5 166Q580 144 580 102Q580 60 573.5 38Q567 16 554 8Q541 0 517 0L113 0Q89 0 76 8Q63 16 56.5 38Q50 60 50 102Q50 144 56.5 166Q63 188 76 196.5Q89 205 113 205L180 205L180 982L113 982Q89 982 76 990Q63 998 56.5 1020Q50 1042 50 1084Q50 1126 56.5 1148Q63 1170 76 1178.5Q89 1187 113 1187L377 1187Q417 1187 433 1160L848 473L852 473L852 982L760 982Q736 982 723 990Q710 998 703.5 1020Q697 1042 697 1084Q697 1126 703.5 1148Q710 1170 723 1178.5Q736 1187 760 1187L1135 1187Z" transform="translate(469.94,88.20) scale(0.01292,-0.01292)"/><path d="M1125 1187Q1149 1187 1162 1178.5Q1175 1170 1181.5 1148Q1188 1126 1188 1084Q1188 1042 1181.5 1020Q1175 998 1162 990Q1149 982 1125 982L1081 982L739 459L739 205L935 205Q959 205 972 196.5Q985 188 991.5 166Q998 144 998 102Q998 60 991.5 38Q985 16 972 8Q959 0 935 0L293 0Q269 0 256 8Q243 16 236.5 38Q230 60 230 102Q230 144 236.5 166Q243 188 256 196.5Q269 205 293 205L489 205L489 460L149 982L103 982Q79 982 66 990Q53 998 46.5 1020Q40 1042 40 1084Q40 1126 46.5 1148Q53 1170 66 1178.5Q79 1187 103 1187L497 1187Q521 1187 534 1178.5Q547 1170 553.5 1148Q560 1126 560 1084Q560 1042 553.5 1020Q547 998 534 990Q521 982 497 982L430 982L616 690L804 982L751 982Q727 982 714 990Q701 998 694.5 1020Q688 1042 688 1084Q688 1126 694.5 1148Q701 1170 714 1178.5Q727 1187 751 1187L1125 1187Z" transform="translate(490.57,88.20) scale(0.01292,-0.01292)"/><path d="M737 1187Q761 1187 774 1178.5Q787 1170 793.5 1148Q800 1126 800 1084Q800 1042 793.5 1020Q787 998 774 990Q761 982 737 982L519 982L519 215L870 215L870 527Q870 561 900.5 575.5Q931 590 1002 590Q1049 590 1074.5 583.5Q1100 577 1110 564Q1120 551 1120 527L1120 65Q1120 31 1105 15.5Q1090 0 1055 0L123 0Q99 0 86 8Q73 16 66.5 38Q60 60 60 102Q60 144 66.5 166Q73 188 86 196.5Q99 205 123 205L269 205L269 982L123 982Q99 982 86 990Q73 998 66.5 1020Q60 1042 60 1084Q60 1126 66.5 1148Q73 1170 86 1178.5Q99 1187 123 1187L737 1187Z" transform="translate(531.83,88.20) scale(0.01292,-0.01292)"/><path d="M737 1187Q761 1187 774 1178.5Q787 1170 793.5 1148Q800 1126 800 1084Q800 1042 793.5 1020Q787 998 774 990Q761 982 737 982L519 982L519 215L870 215L870 527Q870 561 900.5 575.5Q931 590 1002 590Q1049 590 1074.5 583.5Q1100 577 1110 564Q1120 551 1120 527L1120 65Q1120 31 1105 15.5Q1090 0 1055 0L123 0Q99 0 86 8Q73 16 66.5 38Q60 60 60 102Q60 144 66.5 166Q73 188 86 196.5Q99 205 123 205L269 205L269 982L123 982Q99 982 86 990Q73 998 66.5 1020Q60 1042 60 1084Q60 1126 66.5 1148Q73 1170 86 1178.5Q99 1187 123 1187L737 1187Z" transform="translate(552.45,88.20) scale(0.01292,-0.01292)"/><path d="M1006 1209Q1068 1209 1091 1195Q1114 1181 1114 1146L1114 762Q1114 728 1083.5 713.5Q1053 699 982 699Q935 699 909.5 705.5Q884 712 874 725Q864 738 864 762Q864 862 809.5 922Q755 982 654 982Q515 982 443 882Q371 782 371 594Q371 408 447.5 306.5Q524 205 664 205Q751 205 831 228.5Q911 252 1005 300Q1021 308 1035 308Q1082 308 1113 225Q1127 187 1127 157Q1127 106 1081 84Q867 -22 654 -22Q490 -22 365 53Q240 128 171.5 267.5Q103 407 103 594Q103 780 170 919.5Q237 1059 355.5 1134Q474 1209 624 1209Q799 1209 884 1083L884 1146Q884 1180 913 1194.5Q942 1209 1006 1209Z" transform="translate(573.08,88.20) scale(0.01292,-0.01292)"/></g><g fill="#14140f"><path d="M67 0L67 686L211 686L211 123L512 123L512 0Z" transform="translate(78.00,289.80) scale(0.09765,-0.09765)"/><path d="M184 -12Q157 -12 130.5 -5Q104 2 81 18.5Q58 35 44.5 64Q31 93 31 134Q31 185 51 220Q71 255 110 276.5Q149 298 204.5 307.5Q260 317 331 317L331 365Q331 387 324.5 403Q318 419 302 428.5Q286 438 258 438Q229 438 211.5 429.5Q194 421 187 407.5Q180 394 180 378L180 367L53 367Q52 371 52 375.5Q52 380 52 387Q52 436 78 470Q104 504 151 521Q198 538 259 538Q323 538 368 521Q413 504 438 467Q463 430 463 371L463 126Q463 109 472 101Q481 93 494 93L523 93L523 5Q512 -1 491 -6Q470 -11 444 -11Q416 -11 395.5 -2.5Q375 6 362 21.5Q349 37 344 58L337 58Q323 38 301.5 22Q280 6 251.5 -3Q223 -12 184 -12ZM231 91Q254 91 272 99Q290 107 303 121Q316 135 323.5 155Q331 175 331 200L331 236Q279 236 242 227Q205 218 185 199.5Q165 181 165 151Q165 132 172.5 118.5Q180 105 195 98Q210 91 231 91Z" transform="translate(129.73,289.80) scale(0.09765,-0.09765)"/><path d="M58 0L58 526L167 526L177 457L183 457Q199 483 221.5 501.5Q244 520 272.5 529Q301 538 334 538Q382 538 416 520.5Q450 503 468 465.5Q486 428 486 369L486 0L355 0L355 343Q355 364 350.5 379.5Q346 395 336.5 405Q327 415 313 420Q299 425 281 425Q254 425 232.5 410Q211 395 199.5 369Q188 343 188 307L188 0Z" transform="translate(181.23,289.80) scale(0.09765,-0.09765)"/><path d="M221 -12Q162 -12 120.5 17.5Q79 47 57 108Q35 169 35 265Q35 361 57 421Q79 481 119.5 509.5Q160 538 216 538Q247 538 273 530.5Q299 523 318 506.5Q337 490 351 468L357 468L357 723L488 723L488 0L381 0L371 68L365 68Q343 31 306.5 9.5Q270 -12 221 -12ZM264 99Q297 99 317.5 116Q338 133 348 166Q358 199 358 245L358 278Q358 313 352.5 341Q347 369 335 387.5Q323 406 305.5 416Q288 426 263 426Q230 426 209 410Q188 394 179 362Q170 330 170 280L170 244Q170 195 179 162.5Q188 130 209 114.5Q230 99 264 99Z" transform="translate(233.97,289.80) scale(0.09765,-0.09765)"/><path d="M65 -168L65 -109Q87 -105 102 -89.5Q117 -74 125.5 -51Q134 -28 134 0L71 0L71 142L204 142L204 16Q204 -46 184.5 -84.5Q165 -123 133 -143Q101 -163 65 -168Z" transform="translate(287.26,289.80) scale(0.09765,-0.09765)"/><path d="M265 -12Q188 -12 137 17.5Q86 47 60.5 108.5Q35 170 35 263Q35 359 61 420Q87 481 138.5 510Q190 539 266 539Q315 539 354.5 526.5Q394 514 422.5 487Q451 460 465 420Q479 380 479 324L348 324Q348 364 339 387.5Q330 411 311.5 423Q293 435 264 435Q231 435 210 419Q189 403 179 369.5Q169 336 169 282L169 242Q169 196 179 161.5Q189 127 210 109.5Q231 92 267 92Q296 92 315.5 103.5Q335 115 344.5 139.5Q354 164 354 203L479 203Q479 151 465 111Q451 71 423.5 44Q396 17 355.5 2.5Q315 -12 265 -12Z" transform="translate(330.93,289.80) scale(0.09765,-0.09765)"/><path d="M274 -12Q196 -12 143 17Q90 46 62.5 107.5Q35 169 35 263Q35 359 62.5 419.5Q90 480 143 509Q196 538 274 538Q352 538 405.5 509Q459 480 486.5 419.5Q514 359 514 263Q514 169 486.5 107.5Q459 46 405.5 17Q352 -12 274 -12ZM274 93Q312 93 334.5 108Q357 123 368 157Q379 191 379 243L379 283Q379 335 368 369Q357 403 334.5 419Q312 435 274 435Q237 435 214 419Q191 403 180.5 369Q170 335 170 283L170 243Q170 191 180.5 157Q191 123 214 108Q237 93 274 93Z" transform="translate(381.26,289.80) scale(0.09765,-0.09765)"/><path d="M58 0L58 526L167 526L177 457L183 457Q199 483 221.5 501.5Q244 520 272.5 529Q301 538 334 538Q382 538 416 520.5Q450 503 468 465.5Q486 428 486 369L486 0L355 0L355 343Q355 364 350.5 379.5Q346 395 336.5 405Q327 415 313 420Q299 425 281 425Q254 425 232.5 410Q211 395 199.5 369Q188 343 188 307L188 0Z" transform="translate(434.79,289.80) scale(0.09765,-0.09765)"/><path d="M168 0L4 526L144 526L209 286Q213 271 219.5 245Q226 219 233 190Q240 161 245 137L250 137Q256 155 261 182.5Q266 210 273 238.5Q280 267 284 287L351 526L482 526L318 0Z" transform="translate(487.53,289.80) scale(0.09765,-0.09765)"/><path d="M271 -12Q192 -12 139.5 17Q87 46 61 107Q35 168 35 263Q35 360 61.5 420.5Q88 481 140.5 509.5Q193 538 271 538Q345 538 394 511.5Q443 485 467.5 426.5Q492 368 492 272L492 235L169 235Q171 186 180.5 152.5Q190 119 212 103.5Q234 88 272 88Q293 88 309 94Q325 100 337 112Q349 124 355.5 142.5Q362 161 362 186L492 186Q491 136 475.5 98.5Q460 61 431.5 37Q403 13 362.5 0.5Q322 -12 271 -12ZM171 315L357 315Q357 349 351 372Q345 395 334.5 410Q324 425 308 432Q292 439 271 439Q238 439 217 425Q196 411 185 384Q174 357 171 315Z" transform="translate(535.04,289.80) scale(0.09765,-0.09765)"/><path d="M128 -191Q95 -191 71.5 -186.5Q48 -182 40 -179L40 -87L92 -87Q116 -87 133.5 -76Q151 -65 163 -45Q175 -25 183 0L5 526L144 526L219 272Q223 257 229 233.5Q235 210 240.5 186.5Q246 163 250 144L256 144Q259 157 263.5 175Q268 193 272.5 212.5Q277 232 281 249.5Q285 267 289 281L351 526L483 526L326 16Q313 -29 296 -66.5Q279 -104 255.5 -132Q232 -160 201 -175.5Q170 -191 128 -191Z" transform="translate(586.53,289.80) scale(0.09765,-0.09765)"/><path d="M271 -12Q192 -12 139.5 17Q87 46 61 107Q35 168 35 263Q35 360 61.5 420.5Q88 481 140.5 509.5Q193 538 271 538Q345 538 394 511.5Q443 485 467.5 426.5Q492 368 492 272L492 235L169 235Q171 186 180.5 152.5Q190 119 212 103.5Q234 88 272 88Q293 88 309 94Q325 100 337 112Q349 124 355.5 142.5Q362 161 362 186L492 186Q491 136 475.5 98.5Q460 61 431.5 37Q403 13 362.5 0.5Q322 -12 271 -12ZM171 315L357 315Q357 349 351 372Q345 395 334.5 410Q324 425 308 432Q292 439 271 439Q238 439 217 425Q196 411 185 384Q174 357 171 315Z" transform="translate(633.95,289.80) scale(0.09765,-0.09765)"/><path d="M221 -12Q162 -12 120.5 17.5Q79 47 57 108Q35 169 35 265Q35 361 57 421Q79 481 119.5 509.5Q160 538 216 538Q247 538 273 530.5Q299 523 318 506.5Q337 490 351 468L357 468L357 723L488 723L488 0L381 0L371 68L365 68Q343 31 306.5 9.5Q270 -12 221 -12ZM264 99Q297 99 317.5 116Q338 133 348 166Q358 199 358 245L358 278Q358 313 352.5 341Q347 369 335 387.5Q323 406 305.5 416Q288 426 263 426Q230 426 209 410Q188 394 179 362Q170 330 170 280L170 244Q170 195 179 162.5Q188 130 209 114.5Q230 99 264 99Z" transform="translate(685.45,289.80) scale(0.09765,-0.09765)"/></g><g fill="#8c2f28"><path d="M147 0L3 526L140 526L196 272Q200 254 203.5 230.5Q207 207 210.5 188Q214 169 216 158L223 158Q227 178 230.5 199.5Q234 221 238 241.5Q242 262 243 273L297 526L437 526L492 272Q496 258 499 237Q502 216 506 195Q510 174 513 158L519 158Q521 174 524.5 193.5Q528 213 532.5 233.5Q537 254 539 270L594 526L721 526L577 0L439 0L388 239Q386 257 381 280Q376 303 372 325.5Q368 348 366 365L359 365Q359 353 355.5 333.5Q352 314 347.5 290Q343 266 337 239L285 0Z" transform="translate(78.00,382.57) scale(0.09765,-0.09765)"/><path d="M58 605L58 723L188 723L188 605ZM58 0L58 526L188 526L188 0Z" transform="translate(148.68,382.57) scale(0.09765,-0.09765)"/><path d="M197 -12Q153 -12 125 5Q97 22 84.5 51Q72 80 72 117L72 423L16 423L16 526L77 526L100 678L204 678L204 526L288 526L288 423L204 423L204 139Q204 116 213 104.5Q222 93 244 93L288 93L288 4Q275 0 259.5 -3.5Q244 -7 227.5 -9.5Q211 -12 197 -12Z" transform="translate(172.68,382.57) scale(0.09765,-0.09765)"/><path d="M58 0L58 723L188 723L188 470L195 470Q210 492 231 507Q252 522 278 530Q304 538 335 538Q383 538 416.5 520.5Q450 503 468 465.5Q486 428 486 369L486 0L355 0L355 343Q355 364 350.5 379.5Q346 395 336.5 405Q327 415 313 420Q299 425 281 425Q254 425 232.5 410Q211 395 199.5 369Q188 343 188 307L188 0Z" transform="translate(203.06,382.57) scale(0.09765,-0.09765)"/><path d="M274 -12Q196 -12 143 17Q90 46 62.5 107.5Q35 169 35 263Q35 359 62.5 419.5Q90 480 143 509Q196 538 274 538Q352 538 405.5 509Q459 480 486.5 419.5Q514 359 514 263Q514 169 486.5 107.5Q459 46 405.5 17Q352 -12 274 -12ZM274 93Q312 93 334.5 108Q357 123 368 157Q379 191 379 243L379 283Q379 335 368 369Q357 403 334.5 419Q312 435 274 435Q237 435 214 419Q191 403 180.5 369Q170 335 170 283L170 243Q170 191 180.5 157Q191 123 214 108Q237 93 274 93Z" transform="translate(255.77,382.57) scale(0.09765,-0.09765)"/><path d="M206 -12Q133 -12 93 28.5Q53 69 53 158L53 526L184 526L184 185Q184 162 189 146.5Q194 131 203 121.5Q212 112 226 107Q240 102 259 102Q286 102 307 116.5Q328 131 339.5 158Q351 185 351 221L351 526L483 526L483 0L373 0L364 70L358 70Q341 44 318.5 25.5Q296 7 267.5 -2.5Q239 -12 206 -12Z" transform="translate(309.31,382.57) scale(0.09765,-0.09765)"/><path d="M197 -12Q153 -12 125 5Q97 22 84.5 51Q72 80 72 117L72 423L16 423L16 526L77 526L100 678L204 678L204 526L288 526L288 423L204 423L204 139Q204 116 213 104.5Q222 93 244 93L288 93L288 4Q275 0 259.5 -3.5Q244 -7 227.5 -9.5Q211 -12 197 -12Z" transform="translate(361.99,382.57) scale(0.09765,-0.09765)"/><path d="M184 -12Q157 -12 130.5 -5Q104 2 81 18.5Q58 35 44.5 64Q31 93 31 134Q31 185 51 220Q71 255 110 276.5Q149 298 204.5 307.5Q260 317 331 317L331 365Q331 387 324.5 403Q318 419 302 428.5Q286 438 258 438Q229 438 211.5 429.5Q194 421 187 407.5Q180 394 180 378L180 367L53 367Q52 371 52 375.5Q52 380 52 387Q52 436 78 470Q104 504 151 521Q198 538 259 538Q323 538 368 521Q413 504 438 467Q463 430 463 371L463 126Q463 109 472 101Q481 93 494 93L523 93L523 5Q512 -1 491 -6Q470 -11 444 -11Q416 -11 395.5 -2.5Q375 6 362 21.5Q349 37 344 58L337 58Q323 38 301.5 22Q280 6 251.5 -3Q223 -12 184 -12ZM231 91Q254 91 272 99Q290 107 303 121Q316 135 323.5 155Q331 175 331 200L331 236Q279 236 242 227Q205 218 185 199.5Q165 181 165 151Q165 132 172.5 118.5Q180 105 195 98Q210 91 231 91Z" transform="translate(409.20,382.57) scale(0.09765,-0.09765)"/><path d="M325 -12Q277 -12 240 9.5Q203 31 181 68L175 68L165 0L57 0L57 723L188 723L188 468L194 468Q208 490 227.5 506.5Q247 523 273 530.5Q299 538 330 538Q386 538 426.5 509.5Q467 481 489 421Q511 361 511 265Q511 169 489 108Q467 47 426 17.5Q385 -12 325 -12ZM282 99Q317 99 337.5 114.5Q358 130 367 162.5Q376 195 376 244L376 280Q376 330 367 362Q358 394 337.5 410Q317 426 282 426Q257 426 239.5 416Q222 406 210.5 387.5Q199 369 193 341Q187 313 187 278L187 245Q187 199 197 166Q207 133 228 116Q249 99 282 99Z" transform="translate(477.53,382.57) scale(0.09765,-0.09765)"/><path d="M184 -12Q157 -12 130.5 -5Q104 2 81 18.5Q58 35 44.5 64Q31 93 31 134Q31 185 51 220Q71 255 110 276.5Q149 298 204.5 307.5Q260 317 331 317L331 365Q331 387 324.5 403Q318 419 302 428.5Q286 438 258 438Q229 438 211.5 429.5Q194 421 187 407.5Q180 394 180 378L180 367L53 367Q52 371 52 375.5Q52 380 52 387Q52 436 78 470Q104 504 151 521Q198 538 259 538Q323 538 368 521Q413 504 438 467Q463 430 463 371L463 126Q463 109 472 101Q481 93 494 93L523 93L523 5Q512 -1 491 -6Q470 -11 444 -11Q416 -11 395.5 -2.5Q375 6 362 21.5Q349 37 344 58L337 58Q323 38 301.5 22Q280 6 251.5 -3Q223 -12 184 -12ZM231 91Q254 91 272 99Q290 107 303 121Q316 135 323.5 155Q331 175 331 200L331 236Q279 236 242 227Q205 218 185 199.5Q165 181 165 151Q165 132 172.5 118.5Q180 105 195 98Q210 91 231 91Z" transform="translate(530.82,382.57) scale(0.09765,-0.09765)"/><path d="M58 0L58 526L167 526L177 457L183 457Q199 483 221.5 501.5Q244 520 272.5 529Q301 538 334 538Q382 538 416 520.5Q450 503 468 465.5Q486 428 486 369L486 0L355 0L355 343Q355 364 350.5 379.5Q346 395 336.5 405Q327 415 313 420Q299 425 281 425Q254 425 232.5 410Q211 395 199.5 369Q188 343 188 307L188 0Z" transform="translate(582.33,382.57) scale(0.09765,-0.09765)"/><path d="M58 0L58 724L188 724L188 312L352 526L501 526L339 321L509 0L360 0L252 217L188 148L188 0Z" transform="translate(635.06,382.57) scale(0.09765,-0.09765)"/><path d="M71 0L71 142L204 142L204 0Z" transform="translate(685.58,382.57) scale(0.09765,-0.09765)"/></g><g fill="#66614f"><path d="M974 136Q1008 136 1022.5 120.5Q1037 105 1037 68Q1037 31 1022.5 15.5Q1008 0 974 0L300 0Q266 0 251.5 15.5Q237 31 237 68Q237 105 251.5 120.5Q266 136 300 136L569 136L569 994L320 839Q303 829 289 829Q257 829 234 870Q220 894 220 916Q220 950 251 968L628 1200Q648 1212 668 1212Q690 1212 704.5 1197.5Q719 1183 719 1157L719 136L974 136Z" transform="translate(78.00,504.00) scale(0.01292,-0.01292)"/><path d="M590 1209Q705 1209 791 1168.5Q877 1128 924 1053.5Q971 979 971 879Q971 793 931 730.5Q891 668 818 631Q909 593 959.5 520Q1010 447 1010 345Q1010 236 961.5 153Q913 70 820 24Q727 -22 598 -22Q500 -22 400 12Q300 46 221 104Q191 126 191 154Q191 174 208 203Q234 245 266 245Q282 245 300 232Q366 183 443 154.5Q520 126 598 126Q722 126 787 184.5Q852 243 852 345Q852 448 786.5 501.5Q721 555 603 555L530 555Q496 555 481.5 570.5Q467 586 467 623Q467 660 481.5 675.5Q496 691 530 691L585 691Q699 691 758 739Q817 787 817 879Q817 964 758 1012.5Q699 1061 591 1061Q475 1061 394 1022L394 955Q394 920 377 905Q360 890 319 890Q278 890 261 905Q244 920 244 955L244 1064Q244 1086 250.5 1099Q257 1112 271 1121Q414 1209 590 1209Z" transform="translate(97.04,504.00) scale(0.01292,-0.01292)"/><path d="M945 1187Q979 1187 993.5 1171.5Q1008 1156 1008 1119Q1008 1082 993.5 1066.5Q979 1051 945 1051L689 1051L689 136L965 136Q999 136 1013.5 120.5Q1028 105 1028 68Q1028 31 1013.5 15.5Q999 0 965 0L263 0Q229 0 214.5 15.5Q200 31 200 68Q200 105 214.5 120.5Q229 136 263 136L539 136L539 1051L283 1051Q249 1051 234.5 1066.5Q220 1082 220 1119Q220 1156 234.5 1171.5Q249 1187 283 1187L945 1187Z" transform="translate(135.12,504.00) scale(0.01292,-0.01292)"/><path d="M1095 1187Q1129 1187 1143.5 1171.5Q1158 1156 1158 1119Q1158 1082 1143.5 1066.5Q1129 1051 1095 1051L1038 1051L1038 37Q1038 10 1019.5 -6Q1001 -22 963 -22Q910 -22 879 33L360 960L356 960L356 136L497 136Q531 136 545.5 120.5Q560 105 560 68Q560 31 545.5 15.5Q531 0 497 0L143 0Q109 0 94.5 15.5Q80 31 80 68Q80 105 94.5 120.5Q109 136 143 136L210 136L210 1051L133 1051Q99 1051 84.5 1066.5Q70 1082 70 1119Q70 1156 84.5 1171.5Q99 1187 133 1187L357 1187Q379 1187 392.5 1180Q406 1173 414 1159L888 311L892 311L892 1051L771 1051Q737 1051 722.5 1066.5Q708 1082 708 1119Q708 1156 722.5 1171.5Q737 1187 771 1187L1095 1187Z" transform="translate(154.16,504.00) scale(0.01292,-0.01292)"/><path d="M943 1209Q984 1209 1001 1194Q1018 1179 1018 1144L1018 914Q1018 879 1001 864Q984 849 943 849Q905 849 891 875Q843 966 756 1013.5Q669 1061 558 1061Q448 1061 387.5 1010Q327 959 327 873Q327 832 348 804Q369 776 408 756Q443 738 490 726.5Q537 715 616 700Q702 683 752.5 671.5Q803 660 852 640Q952 599 1008.5 525.5Q1065 452 1065 327Q1065 223 1016 144.5Q967 66 871.5 22Q776 -22 642 -22Q542 -22 456.5 14.5Q371 51 308 121L308 43Q308 8 291 -7Q274 -22 233 -22Q192 -22 175 -7Q158 8 158 43L158 343Q158 378 175 393Q192 408 233 408Q276 408 291 366Q332 250 421.5 188Q511 126 642 126Q770 126 838.5 181Q907 236 907 327Q907 390 875.5 429.5Q844 469 784 495Q746 512 701 522.5Q656 533 578 549Q496 565 440.5 579Q385 593 338 614Q258 650 213.5 711.5Q169 773 169 873Q169 976 218.5 1052Q268 1128 356.5 1168.5Q445 1209 558 1209Q646 1209 728 1175Q810 1141 868 1083L868 1144Q868 1179 885 1194Q902 1209 943 1209Z" transform="translate(173.20,504.00) scale(0.01292,-0.01292)"/><path d="M1043 1187Q1077 1187 1091.5 1171.5Q1106 1156 1106 1119L1106 742Q1106 707 1089 692Q1072 677 1031 677Q990 677 973 692Q956 707 956 742L956 1051L689 1051L689 136L925 136Q959 136 973.5 120.5Q988 105 988 68Q988 31 973.5 15.5Q959 0 925 0L303 0Q269 0 254.5 15.5Q240 31 240 68Q240 105 254.5 120.5Q269 136 303 136L539 136L539 1051L272 1051L272 742Q272 707 255 692Q238 677 197 677Q156 677 139 692Q122 707 122 742L122 1119Q122 1156 136.5 1171.5Q151 1187 185 1187L1043 1187Z" transform="translate(192.25,504.00) scale(0.01292,-0.01292)"/><path d="M649 1187Q774 1187 863.5 1145Q953 1103 999.5 1027Q1046 951 1046 850Q1046 736 972 657Q898 578 769 549Q825 527 862 478Q893 437 915 396.5Q937 356 964 297Q992 236 1007 208Q1046 136 1097 136L1125 136Q1159 136 1173.5 120.5Q1188 105 1188 68Q1188 31 1173.5 15.5Q1159 0 1125 0L1053 0Q993 0 951.5 31.5Q910 63 871 139Q849 183 817 255Q787 321 768.5 357.5Q750 394 724 430Q694 472 652 493.5Q610 515 551 515L415 515L415 136L545 136Q579 136 593.5 120.5Q608 105 608 68Q608 31 593.5 15.5Q579 0 545 0L143 0Q109 0 94.5 15.5Q80 31 80 68Q80 105 94.5 120.5Q109 136 143 136L265 136L265 1051L143 1051Q109 1051 94.5 1066.5Q80 1082 80 1119Q80 1156 94.5 1171.5Q109 1187 143 1187L649 1187ZM415 651L618 651Q888 651 888 850Q888 946 820 998.5Q752 1051 628 1051L415 1051Z" transform="translate(211.29,504.00) scale(0.01292,-0.01292)"/><path d="M1095 1187Q1129 1187 1143.5 1171.5Q1158 1156 1158 1119Q1158 1082 1143.5 1066.5Q1129 1051 1095 1051L1033 1051L1033 393Q1033 184 923.5 81Q814 -22 614 -22Q414 -22 304.5 81Q195 184 195 393L195 1051L133 1051Q99 1051 84.5 1066.5Q70 1082 70 1119Q70 1156 84.5 1171.5Q99 1187 133 1187L457 1187Q491 1187 505.5 1171.5Q520 1156 520 1119Q520 1082 505.5 1066.5Q491 1051 457 1051L345 1051L345 413Q345 260 410 193Q475 126 614 126Q753 126 818 193Q883 260 883 413L883 1051L771 1051Q737 1051 722.5 1066.5Q708 1082 708 1119Q708 1156 722.5 1171.5Q737 1187 771 1187L1095 1187Z" transform="translate(230.33,504.00) scale(0.01292,-0.01292)"/><path d="M1105 1187Q1139 1187 1153.5 1171.5Q1168 1156 1168 1119Q1168 1082 1153.5 1066.5Q1139 1051 1105 1051L1055 1051L1081 136L1135 136Q1169 136 1183.5 120.5Q1198 105 1198 68Q1198 31 1183.5 15.5Q1169 0 1135 0L821 0Q787 0 772.5 15.5Q758 31 758 68Q758 105 772.5 120.5Q787 136 821 136L932 136L910 955L706 385Q693 350 671.5 335Q650 320 614 320Q578 320 556.5 335Q535 350 522 385L317 955L296 136L407 136Q441 136 455.5 120.5Q470 105 470 68Q470 31 455.5 15.5Q441 0 407 0L93 0Q59 0 44.5 15.5Q30 31 30 68Q30 105 44.5 120.5Q59 136 93 136L147 136L172 1051L123 1051Q89 1051 74.5 1066.5Q60 1082 60 1119Q60 1156 74.5 1171.5Q89 1187 123 1187L334 1187Q358 1187 372 1179Q386 1171 392 1154L614 545L835 1154Q846 1187 894 1187L1105 1187Z" transform="translate(249.37,504.00) scale(0.01292,-0.01292)"/><path d="M1025 430Q1066 430 1083 415Q1100 400 1100 365L1100 68Q1100 31 1085.5 15.5Q1071 0 1037 0L143 0Q109 0 94.5 15.5Q80 31 80 68Q80 105 94.5 120.5Q109 136 143 136L245 136L245 1051L143 1051Q109 1051 94.5 1066.5Q80 1082 80 1119Q80 1156 94.5 1171.5Q109 1187 143 1187L1017 1187Q1051 1187 1065.5 1171.5Q1080 1156 1080 1119L1080 865Q1080 830 1063 815Q1046 800 1005 800Q964 800 947 815Q930 830 930 865L930 1051L395 1051L395 680L653 680L653 771Q653 806 668.5 821Q684 836 724 836Q764 836 779.5 821Q795 806 795 771L795 453Q795 418 779.5 403Q764 388 724 388Q684 388 668.5 403Q653 418 653 453L653 544L395 544L395 136L950 136L950 365Q950 400 967 415Q984 430 1025 430Z" transform="translate(268.41,504.00) scale(0.01292,-0.01292)"/><path d="M1095 1187Q1129 1187 1143.5 1171.5Q1158 1156 1158 1119Q1158 1082 1143.5 1066.5Q1129 1051 1095 1051L1038 1051L1038 37Q1038 10 1019.5 -6Q1001 -22 963 -22Q910 -22 879 33L360 960L356 960L356 136L497 136Q531 136 545.5 120.5Q560 105 560 68Q560 31 545.5 15.5Q531 0 497 0L143 0Q109 0 94.5 15.5Q80 31 80 68Q80 105 94.5 120.5Q109 136 143 136L210 136L210 1051L133 1051Q99 1051 84.5 1066.5Q70 1082 70 1119Q70 1156 84.5 1171.5Q99 1187 133 1187L357 1187Q379 1187 392.5 1180Q406 1173 414 1159L888 311L892 311L892 1051L771 1051Q737 1051 722.5 1066.5Q708 1082 708 1119Q708 1156 722.5 1171.5Q737 1187 771 1187L1095 1187Z" transform="translate(287.45,504.00) scale(0.01292,-0.01292)"/><path d="M1043 1187Q1077 1187 1091.5 1171.5Q1106 1156 1106 1119L1106 742Q1106 707 1089 692Q1072 677 1031 677Q990 677 973 692Q956 707 956 742L956 1051L689 1051L689 136L925 136Q959 136 973.5 120.5Q988 105 988 68Q988 31 973.5 15.5Q959 0 925 0L303 0Q269 0 254.5 15.5Q240 31 240 68Q240 105 254.5 120.5Q269 136 303 136L539 136L539 1051L272 1051L272 742Q272 707 255 692Q238 677 197 677Q156 677 139 692Q122 707 122 742L122 1119Q122 1156 136.5 1171.5Q151 1187 185 1187L1043 1187Z" transform="translate(306.49,504.00) scale(0.01292,-0.01292)"/><path d="M943 1209Q984 1209 1001 1194Q1018 1179 1018 1144L1018 914Q1018 879 1001 864Q984 849 943 849Q905 849 891 875Q843 966 756 1013.5Q669 1061 558 1061Q448 1061 387.5 1010Q327 959 327 873Q327 832 348 804Q369 776 408 756Q443 738 490 726.5Q537 715 616 700Q702 683 752.5 671.5Q803 660 852 640Q952 599 1008.5 525.5Q1065 452 1065 327Q1065 223 1016 144.5Q967 66 871.5 22Q776 -22 642 -22Q542 -22 456.5 14.5Q371 51 308 121L308 43Q308 8 291 -7Q274 -22 233 -22Q192 -22 175 -7Q158 8 158 43L158 343Q158 378 175 393Q192 408 233 408Q276 408 291 366Q332 250 421.5 188Q511 126 642 126Q770 126 838.5 181Q907 236 907 327Q907 390 875.5 429.5Q844 469 784 495Q746 512 701 522.5Q656 533 578 549Q496 565 440.5 579Q385 593 338 614Q258 650 213.5 711.5Q169 773 169 873Q169 976 218.5 1052Q268 1128 356.5 1168.5Q445 1209 558 1209Q646 1209 728 1175Q810 1141 868 1083L868 1144Q868 1179 885 1194Q902 1209 943 1209Z" transform="translate(325.53,504.00) scale(0.01292,-0.01292)"/><path d="M614 735Q686 735 717.5 720.5Q749 706 749 672L749 488Q749 454 717.5 439.5Q686 425 614 425Q542 425 510.5 439.5Q479 454 479 488L479 672Q479 706 510.5 720.5Q542 735 614 735Z" transform="translate(382.65,504.00) scale(0.01292,-0.01292)"/><path d="M580 1209Q696 1209 783.5 1167.5Q871 1126 919 1047Q967 968 967 859Q967 757 916.5 671.5Q866 586 759 477L423 136L857 136L857 262Q857 297 874 312Q891 327 932 327Q973 327 990 312Q1007 297 1007 262L1007 68Q1007 31 992.5 15.5Q978 0 944 0L250 0Q216 0 201.5 15.5Q187 31 187 68Q187 106 202 122L642 568Q734 662 771.5 724.5Q809 787 809 859Q809 952 749.5 1006.5Q690 1061 581 1061Q471 1061 374 1005L374 895Q374 860 357 845Q340 830 299 830Q258 830 241 845Q224 860 224 895L224 1042Q224 1081 247 1097Q320 1150 405 1179.5Q490 1209 580 1209Z" transform="translate(439.78,504.00) scale(0.01292,-0.01292)"/><path d="M614 1209Q718 1209 802.5 1165.5Q887 1122 935 1046Q983 970 983 879Q983 798 937 734Q891 670 817 630Q910 588 966 513Q1022 438 1022 340Q1022 237 969 154.5Q916 72 823 25Q730 -22 614 -22Q498 -22 405 25Q312 72 259 154.5Q206 237 206 340Q206 438 262 513Q318 588 410 630Q336 670 290.5 734Q245 798 245 879Q245 970 293 1046Q341 1122 425.5 1165.5Q510 1209 614 1209ZM614 1061Q552 1061 503.5 1038.5Q455 1016 427 974Q399 932 399 876Q399 825 427 783Q455 741 504.5 717Q554 693 614 693Q674 693 723.5 717Q773 741 801 783Q829 825 829 876Q829 932 801 974Q773 1016 724.5 1038.5Q676 1061 614 1061ZM614 554Q541 554 485 527Q429 500 397.5 451.5Q366 403 366 341Q366 279 397.5 230Q429 181 485 153.5Q541 126 614 126Q687 126 743 153.5Q799 181 830.5 230Q862 279 862 341Q862 403 830.5 451.5Q799 500 743 527Q687 554 614 554Z" transform="translate(458.82,504.00) scale(0.01292,-0.01292)"/><path d="M697 1187Q731 1187 745.5 1171.5Q760 1156 760 1119Q760 1082 745.5 1066.5Q731 1051 697 1051L455 1051L455 136L950 136L950 465Q950 500 967 515Q984 530 1025 530Q1066 530 1083 515Q1100 500 1100 465L1100 68Q1100 31 1085.5 15.5Q1071 0 1037 0L143 0Q109 0 94.5 15.5Q80 31 80 68Q80 105 94.5 120.5Q109 136 143 136L305 136L305 1051L143 1051Q109 1051 94.5 1066.5Q80 1082 80 1119Q80 1156 94.5 1171.5Q109 1187 143 1187L697 1187Z" transform="translate(496.90,504.00) scale(0.01292,-0.01292)"/><path d="M614 1209Q770 1209 889.5 1132Q1009 1055 1074.5 915.5Q1140 776 1140 593Q1140 410 1074.5 270.5Q1009 131 889.5 54.5Q770 -22 614 -22Q458 -22 338.5 54.5Q219 131 153.5 270.5Q88 410 88 593Q88 776 153.5 915.5Q219 1055 338.5 1132Q458 1209 614 1209ZM614 1061Q504 1061 420.5 1004Q337 947 291.5 841Q246 735 246 593Q246 451 291.5 345.5Q337 240 420.5 183Q504 126 614 126Q724 126 807.5 183Q891 240 936.5 345.5Q982 451 982 593Q982 735 936.5 841Q891 947 807.5 1004Q724 1061 614 1061Z" transform="translate(515.94,504.00) scale(0.01292,-0.01292)"/><path d="M1043 1187Q1077 1187 1091.5 1171.5Q1106 1156 1106 1119L1106 742Q1106 707 1089 692Q1072 677 1031 677Q990 677 973 692Q956 707 956 742L956 1051L689 1051L689 136L925 136Q959 136 973.5 120.5Q988 105 988 68Q988 31 973.5 15.5Q959 0 925 0L303 0Q269 0 254.5 15.5Q240 31 240 68Q240 105 254.5 120.5Q269 136 303 136L539 136L539 1051L272 1051L272 742Q272 707 255 692Q238 677 197 677Q156 677 139 692Q122 707 122 742L122 1119Q122 1156 136.5 1171.5Q151 1187 185 1187L1043 1187Z" transform="translate(534.98,504.00) scale(0.01292,-0.01292)"/><path d="M943 1209Q984 1209 1001 1194Q1018 1179 1018 1144L1018 914Q1018 879 1001 864Q984 849 943 849Q905 849 891 875Q843 966 756 1013.5Q669 1061 558 1061Q448 1061 387.5 1010Q327 959 327 873Q327 832 348 804Q369 776 408 756Q443 738 490 726.5Q537 715 616 700Q702 683 752.5 671.5Q803 660 852 640Q952 599 1008.5 525.5Q1065 452 1065 327Q1065 223 1016 144.5Q967 66 871.5 22Q776 -22 642 -22Q542 -22 456.5 14.5Q371 51 308 121L308 43Q308 8 291 -7Q274 -22 233 -22Q192 -22 175 -7Q158 8 158 43L158 343Q158 378 175 393Q192 408 233 408Q276 408 291 366Q332 250 421.5 188Q511 126 642 126Q770 126 838.5 181Q907 236 907 327Q907 390 875.5 429.5Q844 469 784 495Q746 512 701 522.5Q656 533 578 549Q496 565 440.5 579Q385 593 338 614Q258 650 213.5 711.5Q169 773 169 873Q169 976 218.5 1052Q268 1128 356.5 1168.5Q445 1209 558 1209Q646 1209 728 1175Q810 1141 868 1083L868 1144Q868 1179 885 1194Q902 1209 943 1209Z" transform="translate(554.02,504.00) scale(0.01292,-0.01292)"/><path d="M614 1209Q770 1209 889.5 1132Q1009 1055 1074.5 915.5Q1140 776 1140 593Q1140 410 1074.5 270.5Q1009 131 889.5 54.5Q770 -22 614 -22Q458 -22 338.5 54.5Q219 131 153.5 270.5Q88 410 88 593Q88 776 153.5 915.5Q219 1055 338.5 1132Q458 1209 614 1209ZM614 1061Q504 1061 420.5 1004Q337 947 291.5 841Q246 735 246 593Q246 451 291.5 345.5Q337 240 420.5 183Q504 126 614 126Q724 126 807.5 183Q891 240 936.5 345.5Q982 451 982 593Q982 735 936.5 841Q891 947 807.5 1004Q724 1061 614 1061Z" transform="translate(592.10,504.00) scale(0.01292,-0.01292)"/><path d="M690 1187Q823 1187 918 1140Q1013 1093 1062.5 1007Q1112 921 1112 808Q1112 695 1062.5 610.5Q1013 526 918 479.5Q823 433 690 433L455 433L455 136L695 136Q729 136 743.5 120.5Q758 105 758 68Q758 31 743.5 15.5Q729 0 695 0L143 0Q109 0 94.5 15.5Q80 31 80 68Q80 105 94.5 120.5Q109 136 143 136L305 136L305 1051L143 1051Q109 1051 94.5 1066.5Q80 1082 80 1119Q80 1156 94.5 1171.5Q109 1187 143 1187L690 1187ZM455 569L669 569Q808 569 881 632Q954 695 954 808Q954 923 880.5 987Q807 1051 669 1051L455 1051Z" transform="translate(611.14,504.00) scale(0.01292,-0.01292)"/><path d="M1025 430Q1066 430 1083 415Q1100 400 1100 365L1100 68Q1100 31 1085.5 15.5Q1071 0 1037 0L143 0Q109 0 94.5 15.5Q80 31 80 68Q80 105 94.5 120.5Q109 136 143 136L245 136L245 1051L143 1051Q109 1051 94.5 1066.5Q80 1082 80 1119Q80 1156 94.5 1171.5Q109 1187 143 1187L1017 1187Q1051 1187 1065.5 1171.5Q1080 1156 1080 1119L1080 865Q1080 830 1063 815Q1046 800 1005 800Q964 800 947 815Q930 830 930 865L930 1051L395 1051L395 680L653 680L653 771Q653 806 668.5 821Q684 836 724 836Q764 836 779.5 821Q795 806 795 771L795 453Q795 418 779.5 403Q764 388 724 388Q684 388 668.5 403Q653 418 653 453L653 544L395 544L395 136L950 136L950 365Q950 400 967 415Q984 430 1025 430Z" transform="translate(630.19,504.00) scale(0.01292,-0.01292)"/><path d="M1095 1187Q1129 1187 1143.5 1171.5Q1158 1156 1158 1119Q1158 1082 1143.5 1066.5Q1129 1051 1095 1051L1038 1051L1038 37Q1038 10 1019.5 -6Q1001 -22 963 -22Q910 -22 879 33L360 960L356 960L356 136L497 136Q531 136 545.5 120.5Q560 105 560 68Q560 31 545.5 15.5Q531 0 497 0L143 0Q109 0 94.5 15.5Q80 31 80 68Q80 105 94.5 120.5Q109 136 143 136L210 136L210 1051L133 1051Q99 1051 84.5 1066.5Q70 1082 70 1119Q70 1156 84.5 1171.5Q99 1187 133 1187L357 1187Q379 1187 392.5 1180Q406 1173 414 1159L888 311L892 311L892 1051L771 1051Q737 1051 722.5 1066.5Q708 1082 708 1119Q708 1156 722.5 1171.5Q737 1187 771 1187L1095 1187Z" transform="translate(649.23,504.00) scale(0.01292,-0.01292)"/><path d="M614 735Q686 735 717.5 720.5Q749 706 749 672L749 488Q749 454 717.5 439.5Q686 425 614 425Q542 425 510.5 439.5Q479 454 479 488L479 672Q479 706 510.5 720.5Q542 735 614 735Z" transform="translate(706.35,504.00) scale(0.01292,-0.01292)"/><path d="M1047 1187Q1081 1187 1095.5 1171.5Q1110 1156 1110 1119L1110 855Q1110 820 1093 805Q1076 790 1035 790Q994 790 977 805Q960 820 960 855L960 1051L425 1051L425 660L679 660L679 751Q679 786 694.5 801Q710 816 750 816Q790 816 805.5 801Q821 786 821 751L821 433Q821 398 805.5 383Q790 368 750 368Q710 368 694.5 383Q679 398 679 433L679 524L425 524L425 136L657 136Q691 136 705.5 120.5Q720 105 720 68Q720 31 705.5 15.5Q691 0 657 0L143 0Q109 0 94.5 15.5Q80 31 80 68Q80 105 94.5 120.5Q109 136 143 136L275 136L275 1051L143 1051Q109 1051 94.5 1066.5Q80 1082 80 1119Q80 1156 94.5 1171.5Q109 1187 143 1187L1047 1187Z" transform="translate(763.47,504.00) scale(0.01292,-0.01292)"/><path d="M649 1187Q774 1187 863.5 1145Q953 1103 999.5 1027Q1046 951 1046 850Q1046 736 972 657Q898 578 769 549Q825 527 862 478Q893 437 915 396.5Q937 356 964 297Q992 236 1007 208Q1046 136 1097 136L1125 136Q1159 136 1173.5 120.5Q1188 105 1188 68Q1188 31 1173.5 15.5Q1159 0 1125 0L1053 0Q993 0 951.5 31.5Q910 63 871 139Q849 183 817 255Q787 321 768.5 357.5Q750 394 724 430Q694 472 652 493.5Q610 515 551 515L415 515L415 136L545 136Q579 136 593.5 120.5Q608 105 608 68Q608 31 593.5 15.5Q579 0 545 0L143 0Q109 0 94.5 15.5Q80 31 80 68Q80 105 94.5 120.5Q109 136 143 136L265 136L265 1051L143 1051Q109 1051 94.5 1066.5Q80 1082 80 1119Q80 1156 94.5 1171.5Q109 1187 143 1187L649 1187ZM415 651L618 651Q888 651 888 850Q888 946 820 998.5Q752 1051 628 1051L415 1051Z" transform="translate(782.51,504.00) scale(0.01292,-0.01292)"/><path d="M614 1209Q770 1209 889.5 1132Q1009 1055 1074.5 915.5Q1140 776 1140 593Q1140 410 1074.5 270.5Q1009 131 889.5 54.5Q770 -22 614 -22Q458 -22 338.5 54.5Q219 131 153.5 270.5Q88 410 88 593Q88 776 153.5 915.5Q219 1055 338.5 1132Q458 1209 614 1209ZM614 1061Q504 1061 420.5 1004Q337 947 291.5 841Q246 735 246 593Q246 451 291.5 345.5Q337 240 420.5 183Q504 126 614 126Q724 126 807.5 183Q891 240 936.5 345.5Q982 451 982 593Q982 735 936.5 841Q891 947 807.5 1004Q724 1061 614 1061Z" transform="translate(801.55,504.00) scale(0.01292,-0.01292)"/><path d="M1105 1187Q1139 1187 1153.5 1171.5Q1168 1156 1168 1119Q1168 1082 1153.5 1066.5Q1139 1051 1105 1051L1055 1051L1081 136L1135 136Q1169 136 1183.5 120.5Q1198 105 1198 68Q1198 31 1183.5 15.5Q1169 0 1135 0L821 0Q787 0 772.5 15.5Q758 31 758 68Q758 105 772.5 120.5Q787 136 821 136L932 136L910 955L706 385Q693 350 671.5 335Q650 320 614 320Q578 320 556.5 335Q535 350 522 385L317 955L296 136L407 136Q441 136 455.5 120.5Q470 105 470 68Q470 31 455.5 15.5Q441 0 407 0L93 0Q59 0 44.5 15.5Q30 31 30 68Q30 105 44.5 120.5Q59 136 93 136L147 136L172 1051L123 1051Q89 1051 74.5 1066.5Q60 1082 60 1119Q60 1156 74.5 1171.5Q89 1187 123 1187L334 1187Q358 1187 372 1179Q386 1171 392 1154L614 545L835 1154Q846 1187 894 1187L1105 1187Z" transform="translate(820.59,504.00) scale(0.01292,-0.01292)"/><path d="M608 1312Q645 1312 661.5 1296.5Q678 1281 678 1247L678 1073Q773 1049 854 976L854 1021Q854 1056 871 1071Q888 1086 929 1086Q970 1086 987 1071Q1004 1056 1004 1021L1004 831Q1004 796 987 781Q970 766 929 766Q895 766 881 792Q821 908 678 935L678 688Q805 674 881 646Q961 617 1005.5 562Q1050 507 1050 417Q1050 329 1006.5 262.5Q963 196 879.5 158Q796 120 678 118L678 -60Q678 -94 661.5 -109.5Q645 -125 608 -125Q571 -125 554.5 -109.5Q538 -94 538 -60L538 129Q414 154 329 239L329 183Q329 148 312 133Q295 118 254 118Q213 118 196 133Q179 148 179 183L179 423Q179 458 196 473Q213 488 254 488Q275 488 287 478.5Q299 469 308 447Q336 372 392.5 329Q449 286 538 271L538 550Q408 566 338 595Q265 624 224.5 675.5Q184 727 184 810Q184 897 229.5 959.5Q275 1022 355.5 1054Q436 1086 538 1086L538 1247Q538 1281 554.5 1296.5Q571 1312 608 1312ZM538 941Q445 939 393.5 904.5Q342 870 342 810Q342 778 362.5 758Q383 738 423 725Q458 713 538 702L538 941ZM678 263Q782 268 837 309.5Q892 351 892 417Q892 451 870 473Q848 495 807 509Q763 524 678 534L678 263Z" transform="translate(858.68,504.00) scale(0.01292,-0.01292)"/><path d="M580 1209Q696 1209 783.5 1167.5Q871 1126 919 1047Q967 968 967 859Q967 757 916.5 671.5Q866 586 759 477L423 136L857 136L857 262Q857 297 874 312Q891 327 932 327Q973 327 990 312Q1007 297 1007 262L1007 68Q1007 31 992.5 15.5Q978 0 944 0L250 0Q216 0 201.5 15.5Q187 31 187 68Q187 106 202 122L642 568Q734 662 771.5 724.5Q809 787 809 859Q809 952 749.5 1006.5Q690 1061 581 1061Q471 1061 374 1005L374 895Q374 860 357 845Q340 830 299 830Q258 830 241 845Q224 860 224 895L224 1042Q224 1081 247 1097Q320 1150 405 1179.5Q490 1209 580 1209Z" transform="translate(877.72,504.00) scale(0.01292,-0.01292)"/><path d="M602 1209Q711 1209 802.5 1159Q894 1109 950 1014Q1027 882 1027 675Q1027 502 953.5 348Q880 194 719.5 91.5Q559 -11 311 -22Q284 -23 268.5 -4Q253 15 253 66Q253 97 262.5 110.5Q272 124 290 125Q556 139 699 262.5Q842 386 870 598Q818 530 742 493Q666 456 580 456Q470 456 381.5 503Q293 550 242.5 636Q192 722 192 834Q192 942 243 1027.5Q294 1113 387.5 1161Q481 1209 602 1209ZM602 1061Q526 1061 469 1033Q412 1005 381 953.5Q350 902 350 834Q350 765 380.5 713Q411 661 467.5 632.5Q524 604 602 604Q675 604 733 631.5Q791 659 823.5 707.5Q856 756 856 819Q856 889 824.5 944Q793 999 735.5 1030Q678 1061 602 1061Z" transform="translate(896.76,504.00) scale(0.01292,-0.01292)"/><path d="M714 294Q731 294 740 284.5Q749 275 749 260Q749 246 742 231L530 -253Q512 -294 444 -294Q372 -294 372 -244Q372 -240 374 -228L468 254Q472 273 485.5 283.5Q499 294 520 294L714 294Z" transform="translate(915.80,504.00) scale(0.01292,-0.01292)"/><path d="M602 1209Q711 1209 802.5 1159Q894 1109 950 1014Q1027 882 1027 675Q1027 502 953.5 348Q880 194 719.5 91.5Q559 -11 311 -22Q284 -23 268.5 -4Q253 15 253 66Q253 97 262.5 110.5Q272 124 290 125Q556 139 699 262.5Q842 386 870 598Q818 530 742 493Q666 456 580 456Q470 456 381.5 503Q293 550 242.5 636Q192 722 192 834Q192 942 243 1027.5Q294 1113 387.5 1161Q481 1209 602 1209ZM602 1061Q526 1061 469 1033Q412 1005 381 953.5Q350 902 350 834Q350 765 380.5 713Q411 661 467.5 632.5Q524 604 602 604Q675 604 733 631.5Q791 659 823.5 707.5Q856 756 856 819Q856 889 824.5 944Q793 999 735.5 1030Q678 1061 602 1061Z" transform="translate(934.84,504.00) scale(0.01292,-0.01292)"/><path d="M614 1209Q742 1209 838.5 1132.5Q935 1056 987.5 916.5Q1040 777 1040 593Q1040 409 987.5 270Q935 131 839 54.5Q743 -22 614 -22Q485 -22 389 54.5Q293 131 240.5 270Q188 409 188 593Q188 777 240.5 916.5Q293 1056 389.5 1132.5Q486 1209 614 1209ZM614 1061Q535 1061 474.5 1005.5Q414 950 380 844.5Q346 739 346 593Q346 447 380 341.5Q414 236 474.5 181Q535 126 614 126Q693 126 753.5 181Q814 236 848 341.5Q882 447 882 593Q882 739 848 844.5Q814 950 753.5 1005.5Q693 1061 614 1061Z" transform="translate(953.88,504.00) scale(0.01292,-0.01292)"/><path d="M614 1209Q742 1209 838.5 1132.5Q935 1056 987.5 916.5Q1040 777 1040 593Q1040 409 987.5 270Q935 131 839 54.5Q743 -22 614 -22Q485 -22 389 54.5Q293 131 240.5 270Q188 409 188 593Q188 777 240.5 916.5Q293 1056 389.5 1132.5Q486 1209 614 1209ZM614 1061Q535 1061 474.5 1005.5Q414 950 380 844.5Q346 739 346 593Q346 447 380 341.5Q414 236 474.5 181Q535 126 614 126Q693 126 753.5 181Q814 236 848 341.5Q882 447 882 593Q882 739 848 844.5Q814 950 753.5 1005.5Q693 1061 614 1061Z" transform="translate(972.92,504.00) scale(0.01292,-0.01292)"/><path d="M1175 1187Q1209 1187 1223.5 1171.5Q1238 1156 1238 1119Q1238 1082 1223.5 1066.5Q1209 1051 1175 1051L1121 1051L983 43Q978 7 957.5 -7.5Q937 -22 897 -22Q815 -22 795 43L610 624L423 43Q402 -22 319 -22Q280 -22 259.5 -7Q239 8 235 43L102 1051L53 1051Q19 1051 4.5 1066.5Q-10 1082 -10 1119Q-10 1156 4.5 1171.5Q19 1187 53 1187L397 1187Q431 1187 445.5 1171.5Q460 1156 460 1119Q460 1082 445.5 1066.5Q431 1051 397 1051L251 1051L351 250L539 838Q553 885 611 885Q643 885 660.5 875Q678 865 684 845L871 250L975 1051L851 1051Q817 1051 802.5 1066.5Q788 1082 788 1119Q788 1156 802.5 1171.5Q817 1187 851 1187L1175 1187Z" transform="translate(1011.00,504.00) scale(0.01292,-0.01292)"/><path d="M945 1187Q979 1187 993.5 1171.5Q1008 1156 1008 1119Q1008 1082 993.5 1066.5Q979 1051 945 1051L689 1051L689 136L965 136Q999 136 1013.5 120.5Q1028 105 1028 68Q1028 31 1013.5 15.5Q999 0 965 0L263 0Q229 0 214.5 15.5Q200 31 200 68Q200 105 214.5 120.5Q229 136 263 136L539 136L539 1051L283 1051Q249 1051 234.5 1066.5Q220 1082 220 1119Q220 1156 234.5 1171.5Q249 1187 283 1187L945 1187Z" transform="translate(1030.04,504.00) scale(0.01292,-0.01292)"/><path d="M1043 1187Q1077 1187 1091.5 1171.5Q1106 1156 1106 1119L1106 742Q1106 707 1089 692Q1072 677 1031 677Q990 677 973 692Q956 707 956 742L956 1051L689 1051L689 136L925 136Q959 136 973.5 120.5Q988 105 988 68Q988 31 973.5 15.5Q959 0 925 0L303 0Q269 0 254.5 15.5Q240 31 240 68Q240 105 254.5 120.5Q269 136 303 136L539 136L539 1051L272 1051L272 742Q272 707 255 692Q238 677 197 677Q156 677 139 692Q122 707 122 742L122 1119Q122 1156 136.5 1171.5Q151 1187 185 1187L1043 1187Z" transform="translate(1049.08,504.00) scale(0.01292,-0.01292)"/><path d="M1085 1187Q1119 1187 1133.5 1171.5Q1148 1156 1148 1119Q1148 1082 1133.5 1066.5Q1119 1051 1085 1051L1013 1051L1013 136L1085 136Q1119 136 1133.5 120.5Q1148 105 1148 68Q1148 31 1133.5 15.5Q1119 0 1085 0L771 0Q737 0 722.5 15.5Q708 31 708 68Q708 105 722.5 120.5Q737 136 771 136L863 136L863 544L365 544L365 136L457 136Q491 136 505.5 120.5Q520 105 520 68Q520 31 505.5 15.5Q491 0 457 0L143 0Q109 0 94.5 15.5Q80 31 80 68Q80 105 94.5 120.5Q109 136 143 136L215 136L215 1051L143 1051Q109 1051 94.5 1066.5Q80 1082 80 1119Q80 1156 94.5 1171.5Q109 1187 143 1187L457 1187Q491 1187 505.5 1171.5Q520 1156 520 1119Q520 1082 505.5 1066.5Q491 1051 457 1051L365 1051L365 680L863 680L863 1051L771 1051Q737 1051 722.5 1066.5Q708 1082 708 1119Q708 1156 722.5 1171.5Q737 1187 771 1187L1085 1187Z" transform="translate(1068.12,504.00) scale(0.01292,-0.01292)"/><path d="M608 1312Q645 1312 661.5 1296.5Q678 1281 678 1247L678 1073Q773 1049 854 976L854 1021Q854 1056 871 1071Q888 1086 929 1086Q970 1086 987 1071Q1004 1056 1004 1021L1004 831Q1004 796 987 781Q970 766 929 766Q895 766 881 792Q821 908 678 935L678 688Q805 674 881 646Q961 617 1005.5 562Q1050 507 1050 417Q1050 329 1006.5 262.5Q963 196 879.5 158Q796 120 678 118L678 -60Q678 -94 661.5 -109.5Q645 -125 608 -125Q571 -125 554.5 -109.5Q538 -94 538 -60L538 129Q414 154 329 239L329 183Q329 148 312 133Q295 118 254 118Q213 118 196 133Q179 148 179 183L179 423Q179 458 196 473Q213 488 254 488Q275 488 287 478.5Q299 469 308 447Q336 372 392.5 329Q449 286 538 271L538 550Q408 566 338 595Q265 624 224.5 675.5Q184 727 184 810Q184 897 229.5 959.5Q275 1022 355.5 1054Q436 1086 538 1086L538 1247Q538 1281 554.5 1296.5Q571 1312 608 1312ZM538 941Q445 939 393.5 904.5Q342 870 342 810Q342 778 362.5 758Q383 738 423 725Q458 713 538 702L538 941ZM678 263Q782 268 837 309.5Q892 351 892 417Q892 451 870 473Q848 495 807 509Q763 524 678 534L678 263Z" transform="translate(1106.21,504.00) scale(0.01292,-0.01292)"/><path d="M751 1209Q838 1209 838 1131L838 496L1000 496Q1034 496 1048.5 480.5Q1063 465 1063 428Q1063 391 1048.5 375.5Q1034 360 1000 360L838 360L838 136L970 136Q1004 136 1018.5 120.5Q1033 105 1033 68Q1033 31 1018.5 15.5Q1004 0 970 0L540 0Q506 0 491.5 15.5Q477 31 477 68Q477 105 491.5 120.5Q506 136 540 136L688 136L688 360L210 360Q176 360 161.5 375.5Q147 391 147 428Q147 461 157 475L641 1148Q663 1179 688 1194Q713 1209 751 1209ZM346 496L688 496L696 992Z" transform="translate(1125.25,504.00) scale(0.01292,-0.01292)"/><path d="M580 1209Q696 1209 783.5 1167.5Q871 1126 919 1047Q967 968 967 859Q967 757 916.5 671.5Q866 586 759 477L423 136L857 136L857 262Q857 297 874 312Q891 327 932 327Q973 327 990 312Q1007 297 1007 262L1007 68Q1007 31 992.5 15.5Q978 0 944 0L250 0Q216 0 201.5 15.5Q187 31 187 68Q187 106 202 122L642 568Q734 662 771.5 724.5Q809 787 809 859Q809 952 749.5 1006.5Q690 1061 581 1061Q471 1061 374 1005L374 895Q374 860 357 845Q340 830 299 830Q258 830 241 845Q224 860 224 895L224 1042Q224 1081 247 1097Q320 1150 405 1179.5Q490 1209 580 1209Z" transform="translate(1144.29,504.00) scale(0.01292,-0.01292)"/><path d="M885 1187Q919 1187 933.5 1171.5Q948 1156 948 1119Q948 1082 933.5 1066.5Q919 1051 885 1051L419 1051L406 730Q506 786 621 786Q741 786 829 735Q917 684 963.5 593.5Q1010 503 1010 386Q1010 269 958 176.5Q906 84 810 31Q714 -22 588 -22Q492 -22 395 10Q298 42 219 97Q188 118 188 148Q188 170 204 196Q230 239 262 239Q278 239 296 226Q361 180 437 153Q513 126 588 126Q669 126 729 158.5Q789 191 820.5 249.5Q852 308 852 386Q852 460 822.5 517Q793 574 737.5 606Q682 638 608 638Q540 638 486 620.5Q432 603 381 567Q365 557 331 557Q289 557 271.5 572Q254 587 256 622L276 1122Q278 1157 294 1172Q310 1187 351 1187L885 1187Z" transform="translate(1163.33,504.00) scale(0.01292,-0.01292)"/><path d="M614 1187Q771 1187 890 1115.5Q1009 1044 1074.5 909.5Q1140 775 1140 593Q1140 411 1074.5 277Q1009 143 890 71.5Q771 0 614 0L143 0Q109 0 94.5 15.5Q80 31 80 68Q80 105 94.5 120.5Q109 136 143 136L255 136L255 1051L143 1051Q109 1051 94.5 1066.5Q80 1082 80 1119Q80 1156 94.5 1171.5Q109 1187 143 1187L614 1187ZM405 136L591 136Q710 136 798 188.5Q886 241 934 343.5Q982 446 982 593Q982 740 934 842.5Q886 945 798 998Q710 1051 591 1051L405 1051Z" transform="translate(1201.41,504.00) scale(0.01292,-0.01292)"/><path d="M614 1209Q770 1209 889.5 1132Q1009 1055 1074.5 915.5Q1140 776 1140 593Q1140 410 1074.5 270.5Q1009 131 889.5 54.5Q770 -22 614 -22Q458 -22 338.5 54.5Q219 131 153.5 270.5Q88 410 88 593Q88 776 153.5 915.5Q219 1055 338.5 1132Q458 1209 614 1209ZM614 1061Q504 1061 420.5 1004Q337 947 291.5 841Q246 735 246 593Q246 451 291.5 345.5Q337 240 420.5 183Q504 126 614 126Q724 126 807.5 183Q891 240 936.5 345.5Q982 451 982 593Q982 735 936.5 841Q891 947 807.5 1004Q724 1061 614 1061Z" transform="translate(1220.45,504.00) scale(0.01292,-0.01292)"/><path d="M1175 1187Q1209 1187 1223.5 1171.5Q1238 1156 1238 1119Q1238 1082 1223.5 1066.5Q1209 1051 1175 1051L1121 1051L983 43Q978 7 957.5 -7.5Q937 -22 897 -22Q815 -22 795 43L610 624L423 43Q402 -22 319 -22Q280 -22 259.5 -7Q239 8 235 43L102 1051L53 1051Q19 1051 4.5 1066.5Q-10 1082 -10 1119Q-10 1156 4.5 1171.5Q19 1187 53 1187L397 1187Q431 1187 445.5 1171.5Q460 1156 460 1119Q460 1082 445.5 1066.5Q431 1051 397 1051L251 1051L351 250L539 838Q553 885 611 885Q643 885 660.5 875Q678 865 684 845L871 250L975 1051L851 1051Q817 1051 802.5 1066.5Q788 1082 788 1119Q788 1156 802.5 1171.5Q817 1187 851 1187L1175 1187Z" transform="translate(1239.49,504.00) scale(0.01292,-0.01292)"/><path d="M1095 1187Q1129 1187 1143.5 1171.5Q1158 1156 1158 1119Q1158 1082 1143.5 1066.5Q1129 1051 1095 1051L1038 1051L1038 37Q1038 10 1019.5 -6Q1001 -22 963 -22Q910 -22 879 33L360 960L356 960L356 136L497 136Q531 136 545.5 120.5Q560 105 560 68Q560 31 545.5 15.5Q531 0 497 0L143 0Q109 0 94.5 15.5Q80 31 80 68Q80 105 94.5 120.5Q109 136 143 136L210 136L210 1051L133 1051Q99 1051 84.5 1066.5Q70 1082 70 1119Q70 1156 84.5 1171.5Q99 1187 133 1187L357 1187Q379 1187 392.5 1180Q406 1173 414 1159L888 311L892 311L892 1051L771 1051Q737 1051 722.5 1066.5Q708 1082 708 1119Q708 1156 722.5 1171.5Q737 1187 771 1187L1095 1187Z" transform="translate(1258.53,504.00) scale(0.01292,-0.01292)"/></g><g transform="translate(973.95,277.2) rotate(-7)"><circle cx="0" cy="0" r="148.04999999999998" fill="none" stroke="#8c2f28" stroke-width="6.2181"/><circle cx="0" cy="0" r="133.24499999999998" fill="none" stroke="#8c2f28" stroke-width="2.51685"/><g fill="#8c2f28"><path d="M650 1187Q861 1187 974 1094Q1087 1001 1087 824Q1087 593 839 533Q893 512 925 471Q946 444 963.5 414.5Q981 385 1004 340Q1028 292 1041 271Q1061 238 1081 221.5Q1101 205 1126 205L1145 205Q1169 205 1182 196.5Q1195 188 1201.5 166Q1208 144 1208 102Q1208 60 1201.5 38Q1195 16 1182 8Q1169 0 1145 0L1048 0Q969 0 920 32Q871 64 830 139Q810 174 782 235Q762 281 744 314.5Q726 348 704 380Q673 423 635 442Q597 461 544 461L480 461L480 205L577 205Q601 205 614 196.5Q627 188 633.5 166Q640 144 640 102Q640 60 633.5 38Q627 16 614 8Q601 0 577 0L123 0Q99 0 86 8Q73 16 66.5 38Q60 60 60 102Q60 144 66.5 166Q73 188 86 196.5Q99 205 123 205L230 205L230 982L123 982Q99 982 86 990Q73 998 66.5 1020Q60 1042 60 1084Q60 1126 66.5 1148Q73 1170 86 1178.5Q99 1187 123 1187L650 1187ZM480 676L629 676Q731 676 780 712.5Q829 749 829 824Q829 899 780 935.5Q731 972 629 972L480 972Z" transform="translate(-60.66,-56.88) scale(0.01120,-0.01120)"/><path d="M1035 1187Q1070 1187 1085 1172Q1100 1157 1100 1122L1100 820Q1100 786 1071 771.5Q1042 757 978 757Q916 757 893 771Q870 785 870 820L870 972L470 972L470 719L714 719Q749 719 763 696Q777 673 777 611Q777 549 763 526.5Q749 504 714 504L470 504L470 215L880 215L880 417Q880 451 909.5 465.5Q939 480 1006 480Q1072 480 1096 466Q1120 452 1120 417L1120 65Q1120 31 1105 15.5Q1090 0 1055 0L123 0Q99 0 86 8Q73 16 66.5 38Q60 60 60 102Q60 144 66.5 166Q73 188 86 196.5Q99 205 123 205L220 205L220 982L123 982Q99 982 86 990Q73 998 66.5 1020Q60 1042 60 1084Q60 1126 66.5 1148Q73 1170 86 1178.5Q99 1187 123 1187L1035 1187Z" transform="translate(-45.29,-56.88) scale(0.01120,-0.01120)"/><path d="M1006 1209Q1068 1209 1091 1195Q1114 1181 1114 1146L1114 762Q1114 728 1083.5 713.5Q1053 699 982 699Q935 699 909.5 705.5Q884 712 874 725Q864 738 864 762Q864 862 809.5 922Q755 982 654 982Q515 982 443 882Q371 782 371 594Q371 408 447.5 306.5Q524 205 664 205Q751 205 831 228.5Q911 252 1005 300Q1021 308 1035 308Q1082 308 1113 225Q1127 187 1127 157Q1127 106 1081 84Q867 -22 654 -22Q490 -22 365 53Q240 128 171.5 267.5Q103 407 103 594Q103 780 170 919.5Q237 1059 355.5 1134Q474 1209 624 1209Q799 1209 884 1083L884 1146Q884 1180 913 1194.5Q942 1209 1006 1209Z" transform="translate(-29.93,-56.88) scale(0.01120,-0.01120)"/><path d="M614 1209Q778 1209 903 1134.5Q1028 1060 1096.5 920.5Q1165 781 1165 594Q1165 407 1096.5 267.5Q1028 128 903 53Q778 -22 614 -22Q450 -22 325 53Q200 128 131.5 267.5Q63 407 63 594Q63 781 131.5 920.5Q200 1060 325 1134.5Q450 1209 614 1209ZM614 982Q475 982 403 882Q331 782 331 594Q331 406 403 305.5Q475 205 614 205Q753 205 825 305.5Q897 406 897 594Q897 782 825 882Q753 982 614 982Z" transform="translate(-14.56,-56.88) scale(0.01120,-0.01120)"/><path d="M650 1187Q861 1187 974 1094Q1087 1001 1087 824Q1087 593 839 533Q893 512 925 471Q946 444 963.5 414.5Q981 385 1004 340Q1028 292 1041 271Q1061 238 1081 221.5Q1101 205 1126 205L1145 205Q1169 205 1182 196.5Q1195 188 1201.5 166Q1208 144 1208 102Q1208 60 1201.5 38Q1195 16 1182 8Q1169 0 1145 0L1048 0Q969 0 920 32Q871 64 830 139Q810 174 782 235Q762 281 744 314.5Q726 348 704 380Q673 423 635 442Q597 461 544 461L480 461L480 205L577 205Q601 205 614 196.5Q627 188 633.5 166Q640 144 640 102Q640 60 633.5 38Q627 16 614 8Q601 0 577 0L123 0Q99 0 86 8Q73 16 66.5 38Q60 60 60 102Q60 144 66.5 166Q73 188 86 196.5Q99 205 123 205L230 205L230 982L123 982Q99 982 86 990Q73 998 66.5 1020Q60 1042 60 1084Q60 1126 66.5 1148Q73 1170 86 1178.5Q99 1187 123 1187L650 1187ZM480 676L629 676Q731 676 780 712.5Q829 749 829 824Q829 899 780 935.5Q731 972 629 972L480 972Z" transform="translate(0.80,-56.88) scale(0.01120,-0.01120)"/><path d="M594 1187Q769 1187 895 1118Q1021 1049 1088 915.5Q1155 782 1155 594Q1155 406 1088 272.5Q1021 139 895 69.5Q769 0 594 0L123 0Q99 0 86 8Q73 16 66.5 38Q60 60 60 102Q60 144 66.5 166Q73 188 86 196.5Q99 205 123 205L220 205L220 982L123 982Q99 982 86 990Q73 998 66.5 1020Q60 1042 60 1084Q60 1126 66.5 1148Q73 1170 86 1178.5Q99 1187 123 1187L594 1187ZM470 215L574 215Q729 215 808 311.5Q887 408 887 594Q887 780 808 876Q729 972 574 972L470 972Z" transform="translate(16.17,-56.88) scale(0.01120,-0.01120)"/><path d="M1035 1187Q1070 1187 1085 1172Q1100 1157 1100 1122L1100 820Q1100 786 1071 771.5Q1042 757 978 757Q916 757 893 771Q870 785 870 820L870 972L470 972L470 719L714 719Q749 719 763 696Q777 673 777 611Q777 549 763 526.5Q749 504 714 504L470 504L470 215L880 215L880 417Q880 451 909.5 465.5Q939 480 1006 480Q1072 480 1096 466Q1120 452 1120 417L1120 65Q1120 31 1105 15.5Q1090 0 1055 0L123 0Q99 0 86 8Q73 16 66.5 38Q60 60 60 102Q60 144 66.5 166Q73 188 86 196.5Q99 205 123 205L220 205L220 982L123 982Q99 982 86 990Q73 998 66.5 1020Q60 1042 60 1084Q60 1126 66.5 1148Q73 1170 86 1178.5Q99 1187 123 1187L1035 1187Z" transform="translate(31.54,-56.88) scale(0.01120,-0.01120)"/><path d="M594 1187Q769 1187 895 1118Q1021 1049 1088 915.5Q1155 782 1155 594Q1155 406 1088 272.5Q1021 139 895 69.5Q769 0 594 0L123 0Q99 0 86 8Q73 16 66.5 38Q60 60 60 102Q60 144 66.5 166Q73 188 86 196.5Q99 205 123 205L220 205L220 982L123 982Q99 982 86 990Q73 998 66.5 1020Q60 1042 60 1084Q60 1126 66.5 1148Q73 1170 86 1178.5Q99 1187 123 1187L594 1187ZM470 215L574 215Q729 215 808 311.5Q887 408 887 594Q887 780 808 876Q729 972 574 972L470 972Z" transform="translate(46.90,-56.88) scale(0.01120,-0.01120)"/></g><line x1="-86.60809575907794" y1="-43.674749999999996" x2="86.60809575907794" y2="-43.674749999999996" stroke="#8c2f28" stroke-width="1.9246499999999997"/><g fill="#8c2f28"><path d="M1130 1187Q1154 1187 1167 1178.5Q1180 1170 1186.5 1148Q1193 1126 1193 1084Q1193 1042 1186.5 1020Q1180 998 1167 990Q1154 982 1130 982L1087 982L737 641Q793 638 839 610.5Q885 583 919 535Q942 502 961 466.5Q980 431 1004 380Q1040 306 1054 282Q1076 245 1100 225Q1124 205 1155 205L1165 205Q1189 205 1202 196.5Q1215 188 1221.5 166Q1228 144 1228 102Q1228 60 1221.5 38Q1215 16 1202 8Q1189 0 1165 0L1026 0Q965 0 922.5 37.5Q880 75 844 142Q821 185 796 242Q778 280 759 318Q740 356 724 381Q698 420 666 442.5Q634 465 600 465Q556 465 521 431L470 381L470 205L585 205Q609 205 622 196.5Q635 188 641.5 166Q648 144 648 102Q648 60 641.5 38Q635 16 622 8Q609 0 585 0L113 0Q89 0 76 8Q63 16 56.5 38Q50 60 50 102Q50 144 56.5 166Q63 188 76 196.5Q89 205 113 205L220 205L220 982L113 982Q89 982 76 990Q63 998 56.5 1020Q50 1042 50 1084Q50 1126 56.5 1148Q63 1170 76 1178.5Q89 1187 113 1187L517 1187Q541 1187 554 1178.5Q567 1170 573.5 1148Q580 1126 580 1084Q580 1042 573.5 1020Q567 998 554 990Q541 982 517 982L470 982L470 662L794 982L741 982Q717 982 704 990Q691 998 684.5 1020Q678 1042 678 1084Q678 1126 684.5 1148Q691 1170 704 1178.5Q717 1187 741 1187L1130 1187Z" transform="translate(-58.72,10.13) scale(0.02277,-0.02277)"/><path d="M614 1209Q778 1209 903 1134.5Q1028 1060 1096.5 920.5Q1165 781 1165 594Q1165 407 1096.5 267.5Q1028 128 903 53Q778 -22 614 -22Q450 -22 325 53Q200 128 131.5 267.5Q63 407 63 594Q63 781 131.5 920.5Q200 1060 325 1134.5Q450 1209 614 1209ZM614 982Q475 982 403 882Q331 782 331 594Q331 406 403 305.5Q475 205 614 205Q753 205 825 305.5Q897 406 897 594Q897 782 825 882Q753 982 614 982Z" transform="translate(-28.90,10.13) scale(0.02277,-0.02277)"/><path d="M650 1187Q861 1187 974 1094Q1087 1001 1087 824Q1087 593 839 533Q893 512 925 471Q946 444 963.5 414.5Q981 385 1004 340Q1028 292 1041 271Q1061 238 1081 221.5Q1101 205 1126 205L1145 205Q1169 205 1182 196.5Q1195 188 1201.5 166Q1208 144 1208 102Q1208 60 1201.5 38Q1195 16 1182 8Q1169 0 1145 0L1048 0Q969 0 920 32Q871 64 830 139Q810 174 782 235Q762 281 744 314.5Q726 348 704 380Q673 423 635 442Q597 461 544 461L480 461L480 205L577 205Q601 205 614 196.5Q627 188 633.5 166Q640 144 640 102Q640 60 633.5 38Q627 16 614 8Q601 0 577 0L123 0Q99 0 86 8Q73 16 66.5 38Q60 60 60 102Q60 144 66.5 166Q73 188 86 196.5Q99 205 123 205L230 205L230 982L123 982Q99 982 86 990Q73 998 66.5 1020Q60 1042 60 1084Q60 1126 66.5 1148Q73 1170 86 1178.5Q99 1187 123 1187L650 1187ZM480 676L629 676Q731 676 780 712.5Q829 749 829 824Q829 899 780 935.5Q731 972 629 972L480 972Z" transform="translate(0.93,10.13) scale(0.02277,-0.02277)"/><path d="M650 1187Q861 1187 974 1094Q1087 1001 1087 824Q1087 593 839 533Q893 512 925 471Q946 444 963.5 414.5Q981 385 1004 340Q1028 292 1041 271Q1061 238 1081 221.5Q1101 205 1126 205L1145 205Q1169 205 1182 196.5Q1195 188 1201.5 166Q1208 144 1208 102Q1208 60 1201.5 38Q1195 16 1182 8Q1169 0 1145 0L1048 0Q969 0 920 32Q871 64 830 139Q810 174 782 235Q762 281 744 314.5Q726 348 704 380Q673 423 635 442Q597 461 544 461L480 461L480 205L577 205Q601 205 614 196.5Q627 188 633.5 166Q640 144 640 102Q640 60 633.5 38Q627 16 614 8Q601 0 577 0L123 0Q99 0 86 8Q73 16 66.5 38Q60 60 60 102Q60 144 66.5 166Q73 188 86 196.5Q99 205 123 205L230 205L230 982L123 982Q99 982 86 990Q73 998 66.5 1020Q60 1042 60 1084Q60 1126 66.5 1148Q73 1170 86 1178.5Q99 1187 123 1187L650 1187ZM480 676L629 676Q731 676 780 712.5Q829 749 829 824Q829 899 780 935.5Q731 972 629 972L480 972Z" transform="translate(30.76,10.13) scale(0.02277,-0.02277)"/></g><line x1="-89.71493358278309" y1="27.389249999999997" x2="89.71493358278309" y2="27.389249999999997" stroke="#8c2f28" stroke-width="1.9246499999999997"/><g fill="#8c2f28"><path d="M654 1187Q863 1187 963.5 1101.5Q1064 1016 1064 864Q1064 782 1023.5 723.5Q983 665 910 630Q1139 568 1139 344Q1139 175 1028 87.5Q917 0 710 0L133 0Q109 0 96 8Q83 16 76.5 38Q70 60 70 102Q70 144 76.5 166Q83 188 96 196.5Q109 205 133 205L240 205L240 982L133 982Q109 982 96 990Q83 998 76.5 1020Q70 1042 70 1084Q70 1126 76.5 1148Q83 1170 96 1178.5Q109 1187 133 1187L654 1187ZM490 714L632 714Q722 714 766 746Q810 778 810 844Q810 911 767.5 941.5Q725 972 632 972L490 972ZM490 215L682 215Q876 215 876 354Q876 428 828.5 463.5Q781 499 682 499L490 499Z" transform="translate(-55.93,49.27) scale(0.00759,-0.00759)"/><path d="M1115 1187Q1139 1187 1152 1178.5Q1165 1170 1171.5 1148Q1178 1126 1178 1084Q1178 1042 1171.5 1020Q1165 998 1152 990Q1139 982 1115 982L1068 982L1068 413Q1068 275 1013 177Q958 79 856 28.5Q754 -22 614 -22Q474 -22 372 28.5Q270 79 215 177Q160 275 160 413L160 982L113 982Q89 982 76 990Q63 998 56.5 1020Q50 1042 50 1084Q50 1126 56.5 1148Q63 1170 76 1178.5Q89 1187 113 1187L487 1187Q511 1187 524 1178.5Q537 1170 543.5 1148Q550 1126 550 1084Q550 1042 543.5 1020Q537 998 524 990Q511 982 487 982L410 982L410 433Q410 318 465 261.5Q520 205 614 205Q708 205 763 261.5Q818 318 818 433L818 982L741 982Q717 982 704 990Q691 998 684.5 1020Q678 1042 678 1084Q678 1126 684.5 1148Q691 1170 704 1178.5Q717 1187 741 1187L1115 1187Z" transform="translate(-45.68,49.27) scale(0.00759,-0.00759)"/><path d="M975 1187Q999 1187 1012 1178.5Q1025 1170 1031.5 1148Q1038 1126 1038 1084Q1038 1042 1031.5 1020Q1025 998 1012 990Q999 982 975 982L739 982L739 205L995 205Q1019 205 1032 196.5Q1045 188 1051.5 166Q1058 144 1058 102Q1058 60 1051.5 38Q1045 16 1032 8Q1019 0 995 0L233 0Q209 0 196 8Q183 16 176.5 38Q170 60 170 102Q170 144 176.5 166Q183 188 196 196.5Q209 205 233 205L489 205L489 982L253 982Q229 982 216 990Q203 998 196.5 1020Q190 1042 190 1084Q190 1126 196.5 1148Q203 1170 216 1178.5Q229 1187 253 1187L975 1187Z" transform="translate(-35.42,49.27) scale(0.00759,-0.00759)"/><path d="M737 1187Q761 1187 774 1178.5Q787 1170 793.5 1148Q800 1126 800 1084Q800 1042 793.5 1020Q787 998 774 990Q761 982 737 982L519 982L519 215L870 215L870 527Q870 561 900.5 575.5Q931 590 1002 590Q1049 590 1074.5 583.5Q1100 577 1110 564Q1120 551 1120 527L1120 65Q1120 31 1105 15.5Q1090 0 1055 0L123 0Q99 0 86 8Q73 16 66.5 38Q60 60 60 102Q60 144 66.5 166Q73 188 86 196.5Q99 205 123 205L269 205L269 982L123 982Q99 982 86 990Q73 998 66.5 1020Q60 1042 60 1084Q60 1126 66.5 1148Q73 1170 86 1178.5Q99 1187 123 1187L737 1187Z" transform="translate(-25.17,49.27) scale(0.00759,-0.00759)"/><path d="M594 1187Q769 1187 895 1118Q1021 1049 1088 915.5Q1155 782 1155 594Q1155 406 1088 272.5Q1021 139 895 69.5Q769 0 594 0L123 0Q99 0 86 8Q73 16 66.5 38Q60 60 60 102Q60 144 66.5 166Q73 188 86 196.5Q99 205 123 205L220 205L220 982L123 982Q99 982 86 990Q73 998 66.5 1020Q60 1042 60 1084Q60 1126 66.5 1148Q73 1170 86 1178.5Q99 1187 123 1187L594 1187ZM470 215L574 215Q729 215 808 311.5Q887 408 887 594Q887 780 808 876Q729 972 574 972L470 972Z" transform="translate(-14.91,49.27) scale(0.00759,-0.00759)"/><path d="M975 1187Q999 1187 1012 1178.5Q1025 1170 1031.5 1148Q1038 1126 1038 1084Q1038 1042 1031.5 1020Q1025 998 1012 990Q999 982 975 982L739 982L739 205L995 205Q1019 205 1032 196.5Q1045 188 1051.5 166Q1058 144 1058 102Q1058 60 1051.5 38Q1045 16 1032 8Q1019 0 995 0L233 0Q209 0 196 8Q183 16 176.5 38Q170 60 170 102Q170 144 176.5 166Q183 188 196 196.5Q209 205 233 205L489 205L489 982L253 982Q229 982 216 990Q203 998 196.5 1020Q190 1042 190 1084Q190 1126 196.5 1148Q203 1170 216 1178.5Q229 1187 253 1187L975 1187Z" transform="translate(-4.66,49.27) scale(0.00759,-0.00759)"/><path d="M1135 1187Q1159 1187 1172 1178.5Q1185 1170 1191.5 1148Q1198 1126 1198 1084Q1198 1042 1191.5 1020Q1185 998 1172 990Q1159 982 1135 982L1078 982L1078 44Q1078 11 1053 -5.5Q1028 -22 968 -22Q922 -22 899.5 -9.5Q877 3 860 31L410 776L406 776L406 205L517 205Q541 205 554 196.5Q567 188 573.5 166Q580 144 580 102Q580 60 573.5 38Q567 16 554 8Q541 0 517 0L113 0Q89 0 76 8Q63 16 56.5 38Q50 60 50 102Q50 144 56.5 166Q63 188 76 196.5Q89 205 113 205L180 205L180 982L113 982Q89 982 76 990Q63 998 56.5 1020Q50 1042 50 1084Q50 1126 56.5 1148Q63 1170 76 1178.5Q89 1187 113 1187L377 1187Q417 1187 433 1160L848 473L852 473L852 982L760 982Q736 982 723 990Q710 998 703.5 1020Q697 1042 697 1084Q697 1126 703.5 1148Q710 1170 723 1178.5Q736 1187 760 1187L1135 1187Z" transform="translate(5.59,49.27) scale(0.00759,-0.00759)"/><path d="M976 1209Q1038 1209 1061 1195Q1084 1181 1084 1146L1084 802Q1084 768 1053.5 753.5Q1023 739 952 739Q905 739 879.5 745.5Q854 752 844 765Q834 778 834 802Q834 888 782 935Q730 982 624 982Q485 982 413 882Q341 782 341 594Q341 408 417.5 306.5Q494 205 634 205Q745 205 844 235L844 402L651 402Q627 402 614 410Q601 418 594.5 440Q588 462 588 504Q588 546 594.5 568Q601 590 614 598.5Q627 607 651 607L1125 607Q1149 607 1162 598.5Q1175 590 1181.5 568Q1188 546 1188 504Q1188 462 1181.5 440Q1175 418 1162 410Q1149 402 1125 402L1094 402L1094 143Q1094 119 1084.5 101Q1075 83 1058 74Q965 26 854 2Q743 -22 624 -22Q460 -22 335 53Q210 128 141.5 267.5Q73 407 73 594Q73 780 140 919.5Q207 1059 325.5 1134Q444 1209 594 1209Q770 1209 854 1091L854 1146Q854 1180 883 1194.5Q912 1209 976 1209Z" transform="translate(15.85,49.27) scale(0.00759,-0.00759)"/><path d="M1006 1209Q1068 1209 1091 1195Q1114 1181 1114 1146L1114 762Q1114 728 1083.5 713.5Q1053 699 982 699Q935 699 909.5 705.5Q884 712 874 725Q864 738 864 762Q864 862 809.5 922Q755 982 654 982Q515 982 443 882Q371 782 371 594Q371 408 447.5 306.5Q524 205 664 205Q751 205 831 228.5Q911 252 1005 300Q1021 308 1035 308Q1082 308 1113 225Q1127 187 1127 157Q1127 106 1081 84Q867 -22 654 -22Q490 -22 365 53Q240 128 171.5 267.5Q103 407 103 594Q103 780 170 919.5Q237 1059 355.5 1134Q474 1209 624 1209Q799 1209 884 1083L884 1146Q884 1180 913 1194.5Q942 1209 1006 1209Z" transform="translate(36.35,49.27) scale(0.00759,-0.00759)"/><path d="M614 1209Q778 1209 903 1134.5Q1028 1060 1096.5 920.5Q1165 781 1165 594Q1165 407 1096.5 267.5Q1028 128 903 53Q778 -22 614 -22Q450 -22 325 53Q200 128 131.5 267.5Q63 407 63 594Q63 781 131.5 920.5Q200 1060 325 1134.5Q450 1209 614 1209ZM614 982Q475 982 403 882Q331 782 331 594Q331 406 403 305.5Q475 205 614 205Q753 205 825 305.5Q897 406 897 594Q897 782 825 882Q753 982 614 982Z" transform="translate(46.61,49.27) scale(0.00759,-0.00759)"/></g><g fill="#8c2f28"><path d="M1105 1187Q1139 1187 1153.5 1171.5Q1168 1156 1168 1119Q1168 1082 1153.5 1066.5Q1139 1051 1105 1051L1055 1051L1081 136L1135 136Q1169 136 1183.5 120.5Q1198 105 1198 68Q1198 31 1183.5 15.5Q1169 0 1135 0L821 0Q787 0 772.5 15.5Q758 31 758 68Q758 105 772.5 120.5Q787 136 821 136L932 136L910 955L706 385Q693 350 671.5 335Q650 320 614 320Q578 320 556.5 335Q535 350 522 385L317 955L296 136L407 136Q441 136 455.5 120.5Q470 105 470 68Q470 31 455.5 15.5Q441 0 407 0L93 0Q59 0 44.5 15.5Q30 31 30 68Q30 105 44.5 120.5Q59 136 93 136L147 136L172 1051L123 1051Q89 1051 74.5 1066.5Q60 1082 60 1119Q60 1156 74.5 1171.5Q89 1187 123 1187L334 1187Q358 1187 372 1179Q386 1171 392 1154L614 545L835 1154Q846 1187 894 1187L1105 1187Z" transform="translate(-62.79,71.73) scale(0.00593,-0.00593)"/><path d="M640 1187Q680 1187 704.5 1171.5Q729 1156 741 1122L1094 136L1155 136Q1189 136 1203.5 120.5Q1218 105 1218 68Q1218 31 1203.5 15.5Q1189 0 1155 0L801 0Q767 0 752.5 15.5Q738 31 738 68Q738 105 752.5 120.5Q767 136 801 136L936 136L854 374L369 374L286 136L407 136Q441 136 455.5 120.5Q470 105 470 68Q470 31 455.5 15.5Q441 0 407 0L73 0Q39 0 24.5 15.5Q10 31 10 68Q10 105 24.5 120.5Q39 136 73 136L129 136L460 1051L273 1051Q239 1051 224.5 1066.5Q210 1082 210 1119Q210 1156 224.5 1171.5Q239 1187 273 1187L640 1187ZM603 1051L416 510L808 510L622 1051Z" transform="translate(-54.90,71.73) scale(0.00593,-0.00593)"/><path d="M649 1187Q774 1187 863.5 1145Q953 1103 999.5 1027Q1046 951 1046 850Q1046 736 972 657Q898 578 769 549Q825 527 862 478Q893 437 915 396.5Q937 356 964 297Q992 236 1007 208Q1046 136 1097 136L1125 136Q1159 136 1173.5 120.5Q1188 105 1188 68Q1188 31 1173.5 15.5Q1159 0 1125 0L1053 0Q993 0 951.5 31.5Q910 63 871 139Q849 183 817 255Q787 321 768.5 357.5Q750 394 724 430Q694 472 652 493.5Q610 515 551 515L415 515L415 136L545 136Q579 136 593.5 120.5Q608 105 608 68Q608 31 593.5 15.5Q579 0 545 0L143 0Q109 0 94.5 15.5Q80 31 80 68Q80 105 94.5 120.5Q109 136 143 136L265 136L265 1051L143 1051Q109 1051 94.5 1066.5Q80 1082 80 1119Q80 1156 94.5 1171.5Q109 1187 143 1187L649 1187ZM415 651L618 651Q888 651 888 850Q888 946 820 998.5Q752 1051 628 1051L415 1051Z" transform="translate(-47.01,71.73) scale(0.00593,-0.00593)"/><path d="M945 1187Q979 1187 993.5 1171.5Q1008 1156 1008 1119Q1008 1082 993.5 1066.5Q979 1051 945 1051L689 1051L689 136L965 136Q999 136 1013.5 120.5Q1028 105 1028 68Q1028 31 1013.5 15.5Q999 0 965 0L263 0Q229 0 214.5 15.5Q200 31 200 68Q200 105 214.5 120.5Q229 136 263 136L539 136L539 1051L283 1051Q249 1051 234.5 1066.5Q220 1082 220 1119Q220 1156 234.5 1171.5Q249 1187 283 1187L945 1187Z" transform="translate(-39.13,71.73) scale(0.00593,-0.00593)"/><path d="M999 1209Q1040 1209 1057 1194Q1074 1179 1074 1144L1074 814Q1074 779 1057 764Q1040 749 999 749Q958 749 941 764Q924 779 924 814Q924 882 893.5 938Q863 994 800 1027.5Q737 1061 644 1061Q536 1061 452.5 1004Q369 947 322.5 841Q276 735 276 593Q276 451 320 345.5Q364 240 445 183Q526 126 634 126Q733 126 823 155Q913 184 985 239Q1002 253 1022 253Q1052 253 1075 214Q1093 184 1093 161Q1093 131 1062 109Q969 44 859.5 11Q750 -22 634 -22Q478 -22 361.5 54.5Q245 131 181.5 270Q118 409 118 593Q118 776 183 915.5Q248 1055 365.5 1132Q483 1209 634 1209Q728 1209 801 1177Q874 1145 924 1086L924 1144Q924 1179 941 1194Q958 1209 999 1209Z" transform="translate(-31.24,71.73) scale(0.00593,-0.00593)"/><path d="M614 1209Q770 1209 889.5 1132Q1009 1055 1074.5 915.5Q1140 776 1140 593Q1140 410 1074.5 270.5Q1009 131 889.5 54.5Q770 -22 614 -22Q458 -22 338.5 54.5Q219 131 153.5 270.5Q88 410 88 593Q88 776 153.5 915.5Q219 1055 338.5 1132Q458 1209 614 1209ZM614 1061Q504 1061 420.5 1004Q337 947 291.5 841Q246 735 246 593Q246 451 291.5 345.5Q337 240 420.5 183Q504 126 614 126Q724 126 807.5 183Q891 240 936.5 345.5Q982 451 982 593Q982 735 936.5 841Q891 947 807.5 1004Q724 1061 614 1061Z" transform="translate(-23.36,71.73) scale(0.00593,-0.00593)"/><path d="M690 1187Q823 1187 918 1140Q1013 1093 1062.5 1007Q1112 921 1112 808Q1112 695 1062.5 610.5Q1013 526 918 479.5Q823 433 690 433L455 433L455 136L695 136Q729 136 743.5 120.5Q758 105 758 68Q758 31 743.5 15.5Q729 0 695 0L143 0Q109 0 94.5 15.5Q80 31 80 68Q80 105 94.5 120.5Q109 136 143 136L305 136L305 1051L143 1051Q109 1051 94.5 1066.5Q80 1082 80 1119Q80 1156 94.5 1171.5Q109 1187 143 1187L690 1187ZM455 569L669 569Q808 569 881 632Q954 695 954 808Q954 923 880.5 987Q807 1051 669 1051L455 1051Z" transform="translate(-15.47,71.73) scale(0.00593,-0.00593)"/><path d="M640 1187Q680 1187 704.5 1171.5Q729 1156 741 1122L1094 136L1155 136Q1189 136 1203.5 120.5Q1218 105 1218 68Q1218 31 1203.5 15.5Q1189 0 1155 0L801 0Q767 0 752.5 15.5Q738 31 738 68Q738 105 752.5 120.5Q767 136 801 136L936 136L854 374L369 374L286 136L407 136Q441 136 455.5 120.5Q470 105 470 68Q470 31 455.5 15.5Q441 0 407 0L73 0Q39 0 24.5 15.5Q10 31 10 68Q10 105 24.5 120.5Q39 136 73 136L129 136L460 1051L273 1051Q239 1051 224.5 1066.5Q210 1082 210 1119Q210 1156 224.5 1171.5Q239 1187 273 1187L640 1187ZM603 1051L416 510L808 510L622 1051Z" transform="translate(-7.58,71.73) scale(0.00593,-0.00593)"/><path d="M999 1209Q1040 1209 1057 1194Q1074 1179 1074 1144L1074 814Q1074 779 1057 764Q1040 749 999 749Q958 749 941 764Q924 779 924 814Q924 882 893.5 938Q863 994 800 1027.5Q737 1061 644 1061Q536 1061 452.5 1004Q369 947 322.5 841Q276 735 276 593Q276 451 320 345.5Q364 240 445 183Q526 126 634 126Q733 126 823 155Q913 184 985 239Q1002 253 1022 253Q1052 253 1075 214Q1093 184 1093 161Q1093 131 1062 109Q969 44 859.5 11Q750 -22 634 -22Q478 -22 361.5 54.5Q245 131 181.5 270Q118 409 118 593Q118 776 183 915.5Q248 1055 365.5 1132Q483 1209 634 1209Q728 1209 801 1177Q874 1145 924 1086L924 1144Q924 1179 941 1194Q958 1209 999 1209Z" transform="translate(8.19,71.73) scale(0.00593,-0.00593)"/><path d="M614 1209Q770 1209 889.5 1132Q1009 1055 1074.5 915.5Q1140 776 1140 593Q1140 410 1074.5 270.5Q1009 131 889.5 54.5Q770 -22 614 -22Q458 -22 338.5 54.5Q219 131 153.5 270.5Q88 410 88 593Q88 776 153.5 915.5Q219 1055 338.5 1132Q458 1209 614 1209ZM614 1061Q504 1061 420.5 1004Q337 947 291.5 841Q246 735 246 593Q246 451 291.5 345.5Q337 240 420.5 183Q504 126 614 126Q724 126 807.5 183Q891 240 936.5 345.5Q982 451 982 593Q982 735 936.5 841Q891 947 807.5 1004Q724 1061 614 1061Z" transform="translate(16.08,71.73) scale(0.00593,-0.00593)"/><path d="M614 735Q686 735 717.5 720.5Q749 706 749 672L749 488Q749 454 717.5 439.5Q686 425 614 425Q542 425 510.5 439.5Q479 454 479 488L479 672Q479 706 510.5 720.5Q542 735 614 735Z" transform="translate(31.85,71.73) scale(0.00593,-0.00593)"/><path d="M640 1187Q680 1187 704.5 1171.5Q729 1156 741 1122L1094 136L1155 136Q1189 136 1203.5 120.5Q1218 105 1218 68Q1218 31 1203.5 15.5Q1189 0 1155 0L801 0Q767 0 752.5 15.5Q738 31 738 68Q738 105 752.5 120.5Q767 136 801 136L936 136L854 374L369 374L286 136L407 136Q441 136 455.5 120.5Q470 105 470 68Q470 31 455.5 15.5Q441 0 407 0L73 0Q39 0 24.5 15.5Q10 31 10 68Q10 105 24.5 120.5Q39 136 73 136L129 136L460 1051L273 1051Q239 1051 224.5 1066.5Q210 1082 210 1119Q210 1156 224.5 1171.5Q239 1187 273 1187L640 1187ZM603 1051L416 510L808 510L622 1051Z" transform="translate(47.62,71.73) scale(0.00593,-0.00593)"/><path d="M987 1187Q1021 1187 1035.5 1171.5Q1050 1156 1050 1119Q1050 1094 1040 1080L377 136L909 136L909 405Q909 440 926 455Q943 470 984 470Q1025 470 1042 455Q1059 440 1059 405L1059 68Q1059 31 1044.5 15.5Q1030 0 996 0L230 0Q196 0 181.5 15.5Q167 31 167 68Q167 90 181 111L840 1051L338 1051L338 802Q338 767 321 752Q304 737 263 737Q222 737 205 752Q188 767 188 802L188 1119Q188 1156 202.5 1171.5Q217 1187 251 1187L987 1187Z" transform="translate(55.51,71.73) scale(0.00593,-0.00593)"/></g></g></svg>